# Blender v2.79 (sub 0) OBJ File: ''
# www.blender.org
mtllib finger.mtl
o Finger_Finger.001
v 0.010360 0.000155 -0.026403
v 0.010449 0.000147 -0.002583
v -0.010387 0.000132 -0.002534
v -0.010479 0.018988 -0.016102
v -0.010401 0.000167 -0.026309
v -0.010389 0.019188 -0.025220
v -0.008730 0.036165 0.000024
v 0.010400 0.019037 -0.025253
v 0.005840 0.053803 -0.014274
v 0.008616 0.051328 -0.013989
v 0.010495 0.018436 -0.015103
v 0.008693 0.050166 0.000133
v -0.008623 0.050953 0.000057
v -0.005481 0.053725 0.000091
v -0.005278 0.053849 -0.014293
v -0.007778 0.052366 -0.014218
v -0.008841 0.050589 -0.013918
v 0.006138 0.053578 0.000021
vn 0.0007 -1.0000 -0.0003
vn -1.0000 -0.0045 0.0006
vn -1.0000 0.0012 -0.0099
vn 0.0024 -0.0709 0.9975
vn 0.0007 0.3012 -0.9536
vn -0.0006 -1.0000 -0.0015
vn 0.9983 0.0572 -0.0059
vn 0.9982 0.0323 0.0508
vn 0.9984 0.0570 -0.0007
vn -0.8713 0.0052 0.4907
vn 0.0363 -0.0529 0.9979
vn -0.0037 -0.0032 1.0000
vn 0.9999 -0.0093 -0.0098
vn 1.0000 -0.0019 -0.0037
vn -0.0011 0.0608 -0.9981
vn 0.0028 0.3003 -0.9538
vn -0.2189 0.3226 -0.9209
vn -0.6614 0.7492 0.0350
vn -0.9982 0.0320 0.0513
vn 0.3777 0.3235 -0.8676
vn -0.0045 0.0572 -0.9984
vn -0.9986 0.0524 -0.0088
vn -0.6660 0.2815 -0.6909
vn 0.0128 0.9998 0.0155
vn 0.0041 1.0000 0.0087
vn 0.0065 0.0377 0.9993
vn 0.7989 0.5998 0.0450
vn -0.0090 -0.0022 1.0000
vn -0.5101 0.8601 0.0002
vn -0.9986 0.0508 0.0143
vn 0.6656 0.7463 -0.0021
vn -0.8582 0.5134 0.0000
usemtl None
s off
f 1//1 2//1 3//1
f 3//2 4//2 5//2
f 5//3 4//3 6//3
f 2//4 7//4 3//4
f 8//5 6//5 9//5
f 3//6 5//6 1//6
f 10//7 11//7 8//7
f 11//8 12//8 2//8
f 10//9 12//9 11//9
f 13//10 3//10 7//10
f 2//11 12//11 7//11
f 12//12 14//12 7//12
f 8//13 11//13 2//13
f 8//14 2//14 1//14
f 8//15 1//15 6//15
f 6//16 15//16 9//16
f 16//17 15//17 6//17
f 13//18 14//18 16//18
f 3//19 13//19 4//19
f 8//20 9//20 10//20
f 1//21 5//21 6//21
f 4//22 17//22 6//22
f 17//23 16//23 6//23
f 9//24 14//24 18//24
f 15//25 14//25 9//25
f 12//26 18//26 14//26
f 18//27 12//27 10//27
f 14//28 13//28 7//28
f 16//29 14//29 15//29
f 13//30 17//30 4//30
f 18//31 10//31 9//31
f 16//32 17//32 13//32
