# Blender v2.79 (sub 0) OBJ File: ''
# www.blender.org
mtllib hand.mtl
o Hand_Hand.001
v 0.016735 0.064432 -0.090129
v 0.017134 0.063614 0.089271
v 0.031590 0.006214 0.000559
v -0.017054 0.022121 0.095525
v -0.017510 0.051666 0.097908
v -0.031598 0.001153 0.001987
v -0.025981 -0.005082 -0.075770
v -0.031636 0.005973 0.000579
v 0.017033 0.030322 0.096802
v 0.031616 0.001180 0.001861
v 0.017585 0.051985 0.097407
v 0.018556 0.056617 -0.094602
v -0.016804 0.006295 0.091906
v -0.016812 -0.001206 0.087533
v 0.016230 0.051584 0.099538
v -0.000041 0.005691 0.103990
v -0.000017 -0.009199 0.103743
v -0.003617 -0.012610 0.101158
v -0.003430 -0.008964 0.102598
v -0.025270 0.005197 -0.082065
v -0.028011 -0.006396 -0.041784
v -0.000113 0.065962 -0.092808
v -0.012567 0.065168 -0.093712
v -0.014422 0.065690 -0.091276
v -0.017255 0.063082 0.090700
v -0.015472 0.065190 0.090706
v -0.016767 0.064332 -0.090252
v 0.016956 0.005563 0.091603
v 0.017607 0.058448 0.093848
v 0.012506 0.056894 0.100188
v 0.015551 0.054673 -0.100200
v 0.019269 0.044942 -0.098494
v 0.016218 0.045870 -0.100285
v 0.001917 -0.025659 0.045520
v 0.028015 -0.006350 -0.042042
v 0.003810 -0.024449 0.082966
v 0.020671 0.043308 -0.093692
v 0.025448 0.003501 -0.081181
v -0.003637 -0.024606 0.083586
v -0.016533 -0.005118 0.082236
v -0.014017 0.056027 0.100091
v -0.016013 0.049301 0.099629
v -0.003215 -0.023884 0.087766
v -0.012988 0.065712 0.092496
v -0.000506 0.065953 0.092945
v 0.013540 0.065688 -0.092672
v 0.013425 0.065731 0.091927
v -0.019229 0.050588 -0.097261
v 0.016558 -0.003873 0.085132
v 0.003495 -0.008029 0.102716
v 0.023869 0.004368 -0.090401
v 0.022708 0.014340 -0.093736
v 0.026034 -0.005031 -0.075298
v 0.024817 -0.007156 -0.074378
v -0.001500 -0.025925 0.045870
v -0.000834 -0.007322 -0.080260
v 0.022959 -0.007399 -0.077901
v -0.022761 -0.006910 -0.080174
v 0.000032 -0.017161 0.099451
v -0.016632 0.054734 0.098554
v 0.003602 -0.012628 0.101195
v -0.001617 0.062307 -0.097471
v 0.015718 0.064913 0.091780
v -0.018449 0.058393 -0.092016
v -0.000627 -0.024962 0.087975
v 0.003076 -0.023979 0.087973
v 0.019802 0.020914 -0.097011
v 0.009942 0.058341 -0.100035
v 0.017129 0.054305 -0.099067
v -0.000314 0.007575 -0.094615
v -0.000016 0.027082 -0.098496
v -0.000337 -0.004163 -0.086562
v 0.022314 -0.001933 -0.088250
v 0.022377 -0.005526 -0.083355
v -0.021325 0.000980 -0.090927
v -0.022733 -0.004120 -0.085434
v -0.024495 -0.001833 -0.085892
v 0.001843 -0.025525 0.084002
v -0.024650 -0.006932 -0.076668
v 0.013139 0.064683 0.094063
v -0.009324 0.058489 0.099983
v -0.019067 0.024627 -0.097697
v -0.004494 0.058119 -0.100426
v -0.014623 0.055735 -0.100168
v 0.015805 0.054970 0.099416
v 0.021343 0.008942 -0.094333
v -0.000173 0.000577 -0.090995
v 0.021483 0.002684 -0.091795
v 0.024515 -0.005051 -0.081703
v 0.024729 -0.001232 -0.085740
v -0.020658 0.009538 -0.094668
v 0.001191 0.058623 0.100301
v 0.000470 0.063078 0.096656
v 0.015397 0.064556 -0.092906
v -0.000868 -0.025870 0.082548
v -0.023556 0.004608 -0.091166
v -0.014617 0.064500 0.093442
v -0.023026 0.009877 -0.092897
v -0.021822 0.021756 -0.095442
v -0.018193 0.043814 -0.099518
v -0.016046 0.063617 -0.093209
v -0.016995 0.054115 -0.099363
vn 0.9693 0.2457 -0.0010
vn -0.9868 -0.0281 0.1597
vn -0.9972 -0.0283 -0.0698
vn 0.9866 -0.0296 0.1606
vn 0.9914 0.0376 0.1256
vn 0.9726 0.2324 -0.0101
vn -0.9813 -0.0963 0.1669
vn -0.9911 0.0300 0.1298
vn -0.9848 -0.0533 0.1651
vn 0.3039 -0.0153 0.9526
vn -0.7459 -0.2112 0.6317
vn -0.9968 0.0218 -0.0770
vn -0.9925 -0.1044 -0.0633
vn -0.0443 0.9695 -0.2412
vn -0.7635 0.6458 0.0024
vn 0.9859 -0.0373 0.1629
vn 0.9868 0.1480 0.0651
vn 0.9915 0.0600 0.1150
vn 0.2034 0.0228 0.9788
vn 0.5166 0.0475 -0.8549
vn 0.5871 -0.8095 -0.0035
vn 0.9925 0.0947 -0.0777
vn -0.8321 -0.5428 0.1138
vn -0.9909 0.0872 0.1029
vn -0.2467 0.0066 0.9691
vn -0.7968 -0.4739 0.3750
vn -0.0190 0.9998 0.0000
vn -0.0193 0.9998 0.0000
vn 0.0201 0.9998 0.0001
vn 0.0159 0.9999 -0.0002
vn -0.9913 0.1060 -0.0774
vn 0.8463 -0.0364 0.5314
vn 0.8383 -0.5319 0.1193
vn 0.7134 -0.1462 0.6854
vn 0.7529 -0.6562 0.0508
vn 0.9624 0.1369 -0.2344
vn 0.9867 0.1531 -0.0541
vn 0.9845 0.0671 -0.1622
vn 0.9637 0.0682 -0.2582
vn 0.9883 0.0697 -0.1358
vn 0.9924 -0.1055 -0.0633
vn 0.9971 0.0178 -0.0736
vn 0.9971 -0.0141 -0.0745
vn 0.5257 -0.8501 -0.0308
vn 0.0112 -0.9892 -0.1458
vn -0.0192 -0.9891 -0.1460
vn 0.2958 -0.9510 -0.0903
vn -0.7535 -0.6554 0.0513
vn -0.5571 -0.6435 0.5250
vn -0.8265 -0.5348 0.1757
vn -0.8153 -0.4856 0.3156
vn -0.9475 -0.2790 0.1561
vn -0.9338 0.2057 0.2926
vn 0.1689 -0.4668 0.8681
vn -0.7132 0.0570 0.6987
vn -0.3045 -0.0163 0.9524
vn 0.0219 0.7834 -0.6211
vn -0.0055 0.7879 -0.6158
vn 0.3661 0.9306 -0.0004
vn 0.3362 0.9418 -0.0000
vn -0.9698 0.2441 0.0001
vn -0.9621 0.2726 -0.0007
vn -0.9882 0.1401 -0.0614
vn -0.3605 -0.7617 0.5384
vn 0.8293 -0.5318 0.1716
vn 0.6776 0.7355 0.0018
vn 0.4963 -0.0425 -0.8671
vn 0.0755 0.6871 -0.7226
vn 0.9050 0.1832 -0.3840
vn 0.0127 -0.1953 -0.9807
vn 0.8518 -0.5190 -0.0713
vn 0.0352 -0.8054 -0.5917
vn -0.5389 -0.5439 -0.6432
vn 0.0778 -0.9970 0.0036
vn -0.1987 -0.9735 -0.1133
vn -0.7931 -0.0611 0.6060
vn 0.2836 -0.0095 0.9589
vn -0.1785 -0.4677 0.8657
vn -0.9879 -0.0255 -0.1532
vn -0.2066 0.9784 0.0015
vn -0.5011 0.8654 -0.0005
vn 0.0468 0.8943 0.4451
vn -0.0152 0.0730 0.9972
vn -0.0160 -0.1949 -0.9807
vn -0.1047 0.6203 -0.7773
vn -0.0162 -0.0389 -0.9991
vn 0.8129 -0.3522 0.4637
vn 0.7349 -0.1974 0.6488
vn 0.3555 -0.2860 0.8898
vn 0.7798 0.3856 0.4932
vn 0.2643 0.0676 0.9621
vn 0.5421 0.5148 0.6641
vn 0.4705 0.5215 0.7118
vn 0.5844 -0.0818 0.8074
vn 0.8267 0.1235 0.5490
vn 0.8733 0.2327 0.4280
vn 0.0135 0.5702 -0.8214
vn 0.4813 -0.8766 0.0040
vn 0.0263 -0.2150 -0.9763
vn 0.0354 -0.1250 -0.9915
vn -0.0253 -0.8831 -0.4684
vn 0.0295 -0.6053 -0.7954
vn 0.0095 -0.8943 -0.4475
vn 0.0294 -0.9444 -0.3275
vn 0.0629 -0.9888 -0.1356
vn -0.5124 -0.8580 -0.0362
vn -0.8257 -0.5596 -0.0710
vn 0.6711 -0.5560 -0.4904
vn -0.5831 -0.8124 -0.0046
vn -0.0163 -0.1951 -0.9806
vn -0.1570 0.5808 -0.7987
vn 0.9737 -0.1553 0.1666
vn 0.0758 0.6388 0.7656
vn -0.0243 0.0079 -0.9997
vn 0.0266 0.0334 -0.9991
vn 0.7637 -0.1230 -0.6338
vn 0.5940 0.0867 -0.7998
vn 0.2775 0.6088 -0.7432
vn 0.3446 0.5609 -0.7527
vn 0.7847 0.4113 -0.4637
vn -0.0359 -0.7277 -0.6849
vn 0.9328 -0.2852 -0.2203
vn 0.6242 -0.2816 -0.7287
vn -0.0116 -0.4596 -0.8880
vn 0.0119 -0.4593 -0.8882
vn 0.1267 -0.9919 -0.0007
vn -0.4126 -0.9109 0.0085
vn -0.7986 -0.3025 0.5203
vn -0.5415 0.1033 0.8343
vn -0.3193 -0.0207 0.9474
vn -0.7237 -0.1647 0.6702
vn 0.0240 0.7933 0.6083
vn -0.0316 0.6299 0.7760
vn 0.0206 0.0690 0.9974
vn -0.0311 0.0702 0.9970
vn -0.9828 -0.0078 -0.1846
vn 0.2161 -0.8132 0.5403
vn 0.2461 -0.9266 0.2844
vn 0.5563 -0.6413 0.5284
vn 0.7925 -0.4779 0.3788
vn 0.8804 0.3571 0.3121
vn 0.3256 0.8308 0.4513
vn 0.1011 0.6099 0.7860
vn 0.5360 -0.8296 0.1566
vn 0.5807 0.4893 -0.6507
vn 0.4916 0.8478 -0.1989
vn 0.8283 0.4110 -0.3807
vn 0.0357 -0.3750 -0.9264
vn 0.6568 -0.0831 -0.7495
vn 0.7205 -0.0268 -0.6929
vn 0.5728 -0.7813 -0.2480
vn 0.9910 -0.0231 -0.1322
vn 0.9858 0.0119 -0.1677
vn -0.0154 -0.6827 -0.7305
vn 0.0129 -0.6833 -0.7301
vn -0.0185 -0.8933 -0.4492
vn -0.6192 -0.0940 0.7796
vn -0.3204 -0.3337 0.8866
vn -0.0989 0.6915 0.7155
vn -0.0841 0.6963 0.7129
vn -0.6080 0.4630 0.6449
vn -0.4238 0.8380 0.3438
vn -0.6052 -0.1076 -0.7888
vn -0.0175 -0.0798 -0.9967
vn -0.0194 -0.0487 -0.9986
vn -0.6343 -0.4323 -0.6409
vn 0.0380 -0.9858 0.1634
vn 0.5388 -0.6758 -0.5030
vn 0.8136 -0.5490 -0.1912
vn 0.6525 -0.3840 -0.6533
vn 0.7178 -0.3770 -0.5853
vn -0.2861 0.5789 0.7635
vn -0.0374 0.7852 0.6181
vn -0.7091 0.5987 0.3726
vn -0.8785 0.3239 -0.3512
vn -0.8908 0.3413 -0.3000
vn -0.8681 0.3280 -0.3725
vn -0.6052 -0.1928 -0.7724
vn -0.9846 0.0787 -0.1564
vn -0.9823 0.0617 -0.1769
vn -0.9816 0.0372 -0.1873
vn -0.4459 -0.3291 -0.8324
vn -0.3637 0.5788 -0.7299
vn -0.5757 0.7514 -0.3223
vn 0.4424 -0.8327 -0.3332
vn -0.7063 -0.6145 -0.3516
vn -0.6545 -0.6665 -0.3569
vn -0.8388 -0.4703 -0.2741
vn -0.3547 0.0553 -0.9333
vn -0.5617 -0.1055 -0.8206
vn -0.8517 0.0437 -0.5221
vn -0.7596 0.0980 -0.6429
vn -0.0360 -0.3979 -0.9167
vn -0.5608 0.4888 -0.6683
vn -0.4142 0.7728 -0.4808
vn -0.3903 -0.9051 0.1689
vn -0.7526 0.4205 0.5066
vn -0.0297 -0.0931 -0.9952
vn -0.3465 -0.9179 0.1935
vn -0.6021 -0.0482 -0.7969
usemtl None
s off
f 1//1 2//1 3//1
f 4//2 5//2 6//2
f 7//3 6//3 8//3
f 9//4 10//4 11//4
f 10//5 3//5 11//5
f 12//6 1//6 3//6
f 13//7 6//7 14//7
f 8//8 6//8 5//8
f 4//9 6//9 13//9
f 15//10 16//10 17//10
f 18//11 19//11 13//11
f 20//12 7//12 8//12
f 21//13 6//13 7//13
f 22//14 23//14 24//14
f 25//15 26//15 27//15
f 28//16 10//16 9//16
f 2//17 29//17 3//17
f 29//18 11//18 3//18
f 30//19 16//19 15//19
f 31//20 32//20 33//20
f 34//21 35//21 36//21
f 37//22 3//22 38//22
f 6//23 39//23 40//23
f 25//24 8//24 5//24
f 41//25 42//25 16//25
f 18//26 14//26 43//26
f 22//27 24//27 44//27
f 44//28 45//28 22//28
f 46//29 22//29 45//29
f 45//30 47//30 46//30
f 20//31 8//31 48//31
f 9//32 11//32 15//32
f 36//33 10//33 49//33
f 50//34 28//34 9//34
f 10//35 36//35 35//35
f 12//36 37//36 32//36
f 37//37 12//37 3//37
f 37//38 38//38 51//38
f 37//39 52//39 32//39
f 52//40 37//40 51//40
f 10//41 35//41 53//41
f 10//42 53//42 38//42
f 10//43 38//43 3//43
f 54//44 35//44 34//44
f 55//45 56//45 57//45
f 56//46 55//46 58//46
f 57//47 54//47 34//47
f 39//48 6//48 21//48
f 59//49 18//49 43//49
f 40//50 39//50 43//50
f 14//51 40//51 43//51
f 14//52 6//52 40//52
f 60//53 25//53 5//53
f 59//54 61//54 17//54
f 42//55 60//55 5//55
f 16//56 42//56 17//56
f 62//57 22//57 46//57
f 22//58 62//58 23//58
f 1//59 46//59 63//59
f 47//60 63//60 46//60
f 25//61 64//61 8//61
f 64//62 25//62 27//62
f 64//63 48//63 8//63
f 65//64 59//64 43//64
f 66//65 36//65 49//65
f 63//66 2//66 1//66
f 33//67 32//67 67//67
f 68//68 62//68 46//68
f 32//69 69//69 12//69
f 70//70 71//70 67//70
f 53//71 35//71 54//71
f 72//72 73//72 74//72
f 75//73 76//73 77//73
f 78//74 55//74 34//74
f 55//75 79//75 58//75
f 4//76 42//76 5//76
f 50//77 15//77 17//77
f 59//78 17//78 18//78
f 7//79 20//79 77//79
f 24//80 26//80 44//80
f 27//81 26//81 24//81
f 45//82 80//82 47//82
f 41//83 16//83 81//83
f 82//84 71//84 70//84
f 62//85 83//85 23//85
f 33//86 84//86 83//86
f 49//87 28//87 61//87
f 61//88 28//88 50//88
f 61//89 50//89 17//89
f 63//90 85//90 29//90
f 85//91 30//91 15//91
f 80//92 85//92 63//92
f 85//93 80//93 30//93
f 9//94 15//94 50//94
f 85//95 15//95 11//95
f 11//96 29//96 85//96
f 83//97 62//97 68//97
f 34//98 36//98 78//98
f 70//99 67//99 86//99
f 71//100 33//100 67//100
f 58//101 76//101 72//101
f 73//102 87//102 88//102
f 72//103 74//103 56//103
f 56//104 74//104 57//104
f 34//105 55//105 57//105
f 21//106 79//106 55//106
f 21//107 7//107 79//107
f 89//108 73//108 90//108
f 39//109 21//109 55//109
f 91//110 82//110 70//110
f 84//111 23//111 83//111
f 28//112 49//112 10//112
f 92//113 80//113 93//113
f 31//114 33//114 68//114
f 68//115 33//115 83//115
f 51//116 86//116 52//116
f 69//117 32//117 31//117
f 46//118 94//118 68//118
f 94//119 31//119 68//119
f 94//120 12//120 69//120
f 76//121 75//121 72//121
f 90//122 53//122 89//122
f 86//123 51//123 88//123
f 75//124 70//124 87//124
f 87//125 70//125 88//125
f 95//126 55//126 78//126
f 39//127 55//127 95//127
f 14//128 18//128 13//128
f 42//129 41//129 60//129
f 19//130 17//130 42//130
f 19//131 4//131 13//131
f 45//132 93//132 80//132
f 92//133 93//133 81//133
f 16//134 30//134 92//134
f 92//135 81//135 16//135
f 96//136 77//136 20//136
f 66//137 59//137 65//137
f 65//138 78//138 66//138
f 59//139 66//139 61//139
f 49//140 61//140 66//140
f 2//141 63//141 29//141
f 80//142 63//142 47//142
f 80//143 92//143 30//143
f 78//144 36//144 66//144
f 94//145 69//145 31//145
f 94//146 46//146 1//146
f 12//147 94//147 1//147
f 70//148 86//148 88//148
f 67//149 52//149 86//149
f 52//150 67//150 32//150
f 57//151 89//151 54//151
f 53//152 90//152 38//152
f 90//153 51//153 38//153
f 75//154 87//154 72//154
f 72//155 87//155 73//155
f 56//156 58//156 72//156
f 42//157 4//157 19//157
f 19//158 18//158 17//158
f 97//159 81//159 44//159
f 81//160 93//160 44//160
f 41//161 97//161 60//161
f 26//162 97//162 44//162
f 98//163 99//163 91//163
f 100//164 33//164 71//164
f 84//165 33//165 100//165
f 96//166 75//166 77//166
f 95//167 78//167 65//167
f 73//168 89//168 74//168
f 53//169 54//169 89//169
f 73//170 88//170 51//170
f 90//171 73//171 51//171
f 41//172 81//172 97//172
f 44//173 93//173 45//173
f 25//174 97//174 26//174
f 101//175 48//175 64//175
f 64//176 27//176 101//176
f 102//177 48//177 101//177
f 96//178 98//178 91//178
f 48//179 99//179 20//179
f 99//180 98//180 20//180
f 98//181 96//181 20//181
f 96//182 91//182 75//182
f 84//183 101//183 23//183
f 27//184 24//184 101//184
f 89//185 57//185 74//185
f 77//186 76//186 79//186
f 79//187 76//187 58//187
f 79//188 7//188 77//188
f 102//189 84//189 100//189
f 91//190 99//190 82//190
f 48//191 100//191 99//191
f 100//192 48//192 102//192
f 75//193 91//193 70//193
f 84//194 102//194 101//194
f 24//195 23//195 101//195
f 43//196 95//196 65//196
f 25//197 60//197 97//197
f 82//198 100//198 71//198
f 43//199 39//199 95//199
f 100//200 82//200 99//200
