# Blender v2.79 (sub 0) OBJ File: ''
# www.blender.org
mtllib link0.mtl
o Link0
v -0.001227 -0.000032 0.094614
v 0.071081 0.001340 -0.008446
v 0.071567 0.001349 0.001274
v -0.000517 -0.000006 -0.094670
v 0.070665 0.001333 0.011563
v -0.135131 0.007520 0.065871
v -0.136305 0.000000 0.065946
v -0.131625 -0.000001 0.068799
v 0.054335 0.001048 0.046949
v 0.061945 0.001181 0.035979
v 0.067359 0.001276 0.024527
v 0.052652 0.140000 0.016356
v 0.054855 0.140000 -0.004472
v -0.054967 0.140000 -0.003457
v 0.039102 0.140000 -0.038749
v 0.007778 0.008462 0.091072
v 0.039566 0.140003 0.038470
v -0.029337 0.140001 0.046645
v 0.000349 0.140000 0.055082
v 0.068619 0.001298 -0.020818
v 0.063587 0.001210 -0.032993
v 0.052578 0.001018 -0.048771
v 0.058590 0.001123 -0.041241
v 0.050948 0.140000 -0.020789
v -0.021853 0.140000 -0.050685
v -0.031706 0.140000 -0.045010
v 0.031716 0.140000 -0.045051
v 0.004858 0.140000 -0.054958
v -0.008865 0.140002 -0.054359
v 0.027681 0.140000 0.047680
v -0.054766 0.140000 0.005466
v -0.052884 0.140000 0.015585
v -0.122615 0.061149 -0.005636
v -0.122711 0.060957 0.006144
v 0.014370 0.139999 0.053249
v -0.071675 0.057520 0.075621
v -0.111235 0.059055 0.047477
v -0.137824 0.007553 0.062436
v -0.133699 0.007415 -0.066932
v -0.135830 0.000001 -0.066315
v -0.136293 0.007566 -0.064617
v -0.131612 0.000001 -0.068847
v 0.003172 0.008631 -0.093350
v 0.004086 0.000171 -0.093982
v 0.047476 0.140000 0.027926
v 0.046247 0.140000 -0.030033
v 0.054877 0.140000 0.004566
v -0.129159 0.007445 -0.068684
v -0.047704 0.140000 -0.027596
v -0.052861 0.140000 -0.015711
v 0.020020 0.139999 -0.051446
v 0.006489 0.081080 -0.073519
v 0.008268 0.000243 0.091825
v -0.046437 0.140000 0.029904
v -0.140043 -0.000000 -0.060723
v 0.007694 0.000234 -0.092272
v -0.001599 0.008492 -0.093632
v 0.007344 0.008318 -0.091447
v -0.148808 -0.000000 0.042055
v -0.149244 0.007817 0.037186
v -0.152578 0.000000 0.024818
v 0.009076 0.078455 -0.073715
v -0.121673 0.061418 0.014737
v 0.006782 0.080976 0.073532
v -0.130951 0.007668 0.068140
v -0.018917 0.140000 0.051755
v -0.009084 0.140000 0.054297
v -0.065898 0.058979 0.076548
v -0.037696 0.140000 0.040138
v -0.143472 -0.000000 0.054862
v -0.145452 0.007682 0.048596
v -0.120300 0.061510 0.023545
v -0.118609 0.061340 0.031050
v -0.114761 0.060178 0.041966
v -0.154079 -0.000000 0.005542
v -0.152725 0.008191 0.013799
v -0.153166 0.008351 0.002036
v -0.142117 0.007628 -0.055547
v 0.053554 0.140000 -0.012818
v -0.109983 0.058880 -0.048611
v 0.003669 0.008476 0.093249
v 0.003496 0.000178 0.094216
v 0.009066 0.078596 0.073708
v -0.117004 0.060836 0.036638
v -0.151587 0.008048 0.024833
v -0.152410 -0.000000 -0.025827
v -0.153841 0.000000 -0.010576
v -0.152020 0.008110 -0.021780
v -0.121149 0.061570 -0.018138
v -0.040085 0.140000 -0.037834
v -0.113238 0.059685 -0.044715
v -0.000867 0.008178 0.093737
v -0.141842 0.007617 0.055959
v -0.149634 0.007869 -0.035582
v -0.149290 0.000000 -0.040250
v -0.152949 0.008220 -0.010069
v -0.145377 -0.000000 -0.050892
v -0.115710 0.060711 -0.039594
v -0.023111 0.068968 0.075972
v -0.117233 0.060957 -0.035881
v -0.146172 0.007704 -0.046753
v -0.119414 0.061140 -0.028790
vn 0.0190 -0.9998 0.0000
vn 0.0189 -0.9998 -0.0001
vn 0.0191 -0.9998 0.0001
vn -0.5185 0.0894 0.8504
vn 0.0223 -0.9997 0.0033
vn 0.0205 -0.9998 0.0014
vn 0.0000 1.0000 0.0000
vn 0.9918 0.1175 -0.0497
vn 0.6929 0.1171 0.7115
vn 0.0193 -0.9998 -0.0004
vn 0.0200 -0.9998 -0.0010
vn 0.0233 -0.9997 -0.0046
vn 0.0211 -0.9998 -0.0022
vn 0.0197 -0.9998 0.0006
vn 0.0001 1.0000 -0.0000
vn 0.9176 0.1170 -0.3800
vn 0.0002 1.0000 0.0015
vn -0.0001 1.0000 0.0002
vn 0.0004 1.0000 -0.0000
vn -0.7590 0.6511 0.0044
vn -0.7582 0.6519 0.0170
vn -0.0000 1.0000 0.0001
vn -0.4885 0.5016 0.7140
vn -0.7799 0.1278 0.6127
vn -0.6563 0.1268 -0.7438
vn -0.5132 0.0764 -0.8549
vn 0.1440 0.0892 -0.9855
vn 0.0001 1.0000 -0.0002
vn 0.7941 0.1207 0.5957
vn 0.8153 0.1179 0.5669
vn 0.8973 0.1182 0.4252
vn 0.9062 0.1200 0.4054
vn 0.8489 0.1170 -0.5155
vn 0.9928 0.1196 -0.0024
vn -0.2569 0.3312 -0.9079
vn -0.0000 1.0000 -0.0001
vn -0.0416 0.2992 -0.9533
vn 0.0340 -0.9993 0.0169
vn -0.0001 1.0000 0.0000
vn -0.7958 0.0859 -0.5995
vn 0.4240 0.1130 -0.8986
vn 0.0479 -0.9968 -0.0641
vn 0.0549 0.1280 -0.9903
vn 0.0494 0.2616 -0.9639
vn 0.0344 -0.9993 -0.0175
vn 0.6913 0.1030 -0.7152
vn 0.6915 0.1184 -0.7126
vn -0.9739 0.0783 0.2130
vn 0.8849 0.1202 -0.4499
vn 0.9893 0.1170 0.0869
vn 0.9623 0.1165 0.2459
vn -0.1926 0.0849 -0.9776
vn -0.1918 0.0949 -0.9768
vn -0.1232 0.2777 -0.9527
vn -0.4415 0.4664 -0.7665
vn 0.4673 0.2262 -0.8547
vn 0.6928 0.1066 0.7132
vn -0.7569 0.6511 0.0565
vn 0.1233 0.3083 0.9433
vn -0.4939 0.4863 0.7208
vn -0.4770 0.1168 0.8711
vn -0.4461 0.4112 0.7949
vn -0.0001 1.0000 0.0003
vn -0.2290 0.4038 0.8857
vn -0.6084 0.5998 0.5197
vn -0.9205 0.0755 0.3835
vn -0.7369 0.6513 0.1808
vn -0.6117 0.6013 0.5140
vn 0.4193 0.1101 -0.9011
vn -0.9914 0.1247 0.0388
vn -0.9933 0.0862 0.0773
vn -0.8331 0.1371 -0.5359
vn 0.9436 0.1203 -0.3086
vn 0.9810 0.1192 -0.1528
vn 0.9740 0.1170 -0.1942
vn 0.7678 0.1198 -0.6294
vn 0.7751 0.1190 -0.6205
vn 0.9755 0.1204 0.1841
vn -0.3341 0.3872 -0.8593
vn -0.1869 0.2716 -0.9441
vn -0.4616 0.4786 -0.7469
vn 0.4187 0.2128 -0.8828
vn 0.5168 0.1978 -0.8329
vn 0.4658 0.1082 0.8782
vn 0.4449 0.0944 0.8906
vn 0.0506 -0.9960 0.0738
vn 0.4588 0.2056 0.8644
vn 0.5161 0.1969 0.8336
vn -0.3872 0.4761 0.7896
vn -0.2447 0.4107 0.8783
vn -0.2085 0.1019 0.9727
vn -0.1935 0.0857 0.9774
vn -0.1822 0.0998 0.9782
vn -0.5199 0.5329 0.6677
vn -0.0002 1.0000 0.0001
vn -0.7737 0.5012 0.3876
vn -0.8368 0.0831 0.5411
vn -0.9387 0.1429 0.3137
vn 0.6421 0.1463 -0.7525
vn -0.9750 0.1197 0.1872
vn -0.9872 0.1214 0.1034
vn -0.9912 0.0941 -0.0930
vn -0.7460 0.6535 -0.1282
vn -0.3573 0.1381 -0.9237
vn -0.5623 0.4949 -0.6625
vn -0.6091 0.5034 -0.6128
vn 0.1834 0.2517 -0.9503
vn 0.2153 0.2988 -0.9297
vn 0.2290 0.2949 -0.9277
vn 0.6040 0.1658 0.7795
vn 0.2300 0.2897 0.9291
vn 0.3722 0.2643 0.8897
vn -0.1712 0.1120 0.9788
vn 0.0790 0.1024 0.9916
vn -0.7750 0.5016 0.3844
vn -0.8901 0.1274 0.4375
vn -0.6766 0.5050 0.5359
vn -0.8446 0.1050 0.5250
vn -0.6955 0.6467 0.3131
vn -0.7141 0.6485 0.2635
vn -0.9741 0.0824 -0.2107
vn -0.8667 0.4984 -0.0209
vn -0.9940 0.1088 -0.0146
vn -0.9947 0.1008 -0.0189
vn -0.9905 0.1124 -0.0796
vn -0.8758 0.0843 -0.4752
vn -0.6486 0.6226 -0.4379
vn -0.6320 0.6159 -0.4703
vn -0.5425 0.5517 -0.6335
vn -0.5693 0.5693 -0.5932
vn -0.8546 0.5032 0.1279
vn 0.1874 0.2503 0.9499
vn -0.0300 0.2702 0.9623
vn -0.7335 0.5004 0.4600
vn -0.8194 0.5011 0.2782
vn -0.8189 0.5008 0.2803
vn -0.8401 0.5039 0.2007
vn -0.8655 0.5009 0.0010
vn -0.8618 0.5014 0.0772
vn -0.7349 0.5025 -0.4555
vn -0.7892 0.4998 -0.3568
vn -0.8999 0.1307 -0.4161
vn -0.9349 0.0882 -0.3438
vn -0.7503 0.6518 0.1101
vn -0.7443 0.6533 0.1385
vn -0.0486 0.2637 0.9634
vn -0.0570 0.2990 0.9526
vn -0.0787 0.3149 0.9458
vn 0.0865 0.2580 0.9623
vn 0.0989 0.1131 0.9887
vn -0.0402 0.2941 0.9549
vn -0.6795 0.6367 0.3646
vn -0.6769 0.5050 0.5355
vn -0.8606 0.5004 0.0953
vn -0.8661 0.4983 0.0392
vn -0.8487 0.5008 0.1703
vn -0.9763 0.1323 -0.1711
vn -0.7843 0.5009 -0.3660
vn -0.7437 0.6521 -0.1475
vn -0.7564 0.6507 -0.0668
vn -0.7267 0.5010 -0.4701
vn -0.9460 0.1337 -0.2952
vn -0.7000 0.6463 -0.3037
vn -0.6906 0.6456 -0.3260
vn -0.7222 0.6491 -0.2388
vn -0.8626 0.5005 -0.0731
vn -0.8604 0.5026 -0.0840
vn -0.8231 0.5016 -0.2661
vn -0.8505 0.5024 -0.1558
vn -0.8503 0.5018 -0.1588
vn -0.8244 0.5012 -0.2629
vn -0.0001 -1.0000 -0.0001
vn -0.0001 -1.0000 -0.0000
vn -0.0003 -1.0000 0.0001
vn 0.0000 -1.0000 -0.0000
vn 0.0003 -1.0000 0.0000
vn 0.0005 -1.0000 0.0002
vn -0.0002 -1.0000 0.0000
vn -0.0004 -1.0000 -0.0001
vn 0.0001 -1.0000 -0.0000
vn -0.0003 -1.0000 -0.0000
usemtl None
s off
f 1//1 2//1 3//1
f 4//2 2//2 1//2
f 3//3 5//3 1//3
f 6//4 7//4 8//4
f 9//5 1//5 10//5
f 1//6 11//6 10//6
f 12//7 13//7 14//7
f 13//7 15//7 14//7
f 2//8 13//8 3//8
f 16//9 9//9 17//9
f 14//7 18//7 19//7
f 20//10 2//10 4//10
f 21//11 20//11 4//11
f 22//12 23//12 4//12
f 23//13 21//13 4//13
f 1//14 5//14 11//14
f 13//15 24//15 15//15
f 20//16 21//16 24//16
f 25//7 26//7 14//7
f 15//7 27//7 14//7
f 14//7 28//7 25//7
f 29//17 25//17 28//17
f 30//18 17//18 14//18
f 31//19 32//19 14//19
f 33//20 34//20 14//20
f 14//21 34//21 31//21
f 35//22 30//22 14//22
f 19//7 35//7 14//7
f 36//23 18//23 37//23
f 7//24 6//24 38//24
f 39//25 40//25 41//25
f 42//26 40//26 39//26
f 4//27 43//27 44//27
f 17//28 45//28 14//28
f 9//29 45//29 17//29
f 10//30 45//30 9//30
f 14//7 45//7 12//7
f 11//31 45//31 10//31
f 12//32 45//32 11//32
f 21//33 23//33 46//33
f 13//34 47//34 3//34
f 12//15 47//15 13//15
f 25//35 29//35 48//35
f 14//7 49//7 50//7
f 51//7 28//7 14//7
f 27//36 51//36 14//36
f 52//37 29//37 28//37
f 9//38 53//38 1//38
f 32//39 54//39 14//39
f 55//40 41//40 40//40
f 56//41 44//41 43//41
f 4//42 44//42 56//42
f 57//43 43//43 4//43
f 52//44 43//44 57//44
f 56//45 22//45 4//45
f 56//46 58//46 22//46
f 58//47 15//47 22//47
f 59//48 60//48 61//48
f 24//15 46//15 15//15
f 24//49 21//49 46//49
f 47//50 5//50 3//50
f 5//51 12//51 11//51
f 48//52 4//52 42//52
f 4//53 48//53 57//53
f 29//54 52//54 57//54
f 39//55 26//55 25//55
f 51//56 27//56 62//56
f 9//57 16//57 53//57
f 34//58 63//58 31//58
f 35//59 19//59 64//59
f 37//60 6//60 36//60
f 8//61 65//61 6//61
f 6//62 65//62 36//62
f 18//63 66//63 19//63
f 67//22 19//22 66//22
f 66//64 68//64 67//64
f 37//65 69//65 54//65
f 70//66 71//66 59//66
f 72//67 73//67 32//67
f 54//68 74//68 37//68
f 56//69 43//69 58//69
f 75//70 76//70 77//70
f 61//71 76//71 75//71
f 78//72 41//72 55//72
f 79//15 24//15 13//15
f 24//73 79//73 20//73
f 2//74 79//74 13//74
f 20//75 79//75 2//75
f 15//76 46//76 22//76
f 22//77 46//77 23//77
f 47//78 12//78 5//78
f 25//79 48//79 39//79
f 57//80 48//80 29//80
f 39//81 80//81 26//81
f 58//82 43//82 62//82
f 58//83 62//83 27//83
f 81//84 53//84 16//84
f 81//85 82//85 53//85
f 53//86 82//86 1//86
f 16//87 83//87 81//87
f 30//88 83//88 16//88
f 36//89 66//89 18//89
f 68//90 66//90 36//90
f 8//91 36//91 65//91
f 1//92 36//92 8//92
f 68//93 36//93 1//93
f 37//94 18//94 69//94
f 69//95 18//95 14//95
f 54//7 69//7 14//7
f 71//96 74//96 84//96
f 7//97 38//97 70//97
f 59//98 71//98 60//98
f 58//99 27//99 15//99
f 61//100 60//100 85//100
f 85//101 76//101 61//101
f 86//102 87//102 88//102
f 50//103 89//103 14//103
f 39//104 48//104 42//104
f 14//7 26//7 90//7
f 39//105 41//105 80//105
f 41//106 91//106 80//106
f 52//107 62//107 43//107
f 51//108 52//108 28//108
f 62//109 52//109 51//109
f 30//110 16//110 17//110
f 64//111 83//111 35//111
f 30//112 35//112 83//112
f 68//113 1//113 92//113
f 82//114 92//114 1//114
f 74//115 71//115 93//115
f 93//116 71//116 70//116
f 6//117 37//117 74//117
f 38//118 93//118 70//118
f 84//119 54//119 32//119
f 73//120 84//120 32//120
f 86//121 94//121 95//121
f 33//122 96//122 77//122
f 75//123 96//123 87//123
f 77//124 96//124 75//124
f 87//125 96//125 88//125
f 97//126 78//126 55//126
f 90//7 49//7 14//7
f 49//127 91//127 98//127
f 90//128 91//128 49//128
f 26//129 80//129 90//129
f 91//130 90//130 80//130
f 72//131 63//131 85//131
f 64//132 81//132 83//132
f 92//133 64//133 99//133
f 93//134 38//134 74//134
f 71//135 84//135 60//135
f 60//136 84//136 73//136
f 60//137 73//137 72//137
f 33//138 77//138 34//138
f 34//139 76//139 63//139
f 98//140 91//140 78//140
f 78//141 100//141 98//141
f 97//142 101//142 78//142
f 95//143 101//143 97//143
f 63//144 72//144 31//144
f 72//145 32//145 31//145
f 68//146 92//146 99//146
f 19//147 68//147 99//147
f 67//148 68//148 19//148
f 92//149 81//149 64//149
f 92//150 82//150 81//150
f 99//151 64//151 19//151
f 84//152 74//152 54//152
f 38//153 6//153 74//153
f 63//154 76//154 85//154
f 76//155 34//155 77//155
f 85//156 60//156 72//156
f 86//157 88//157 94//157
f 78//158 101//158 100//158
f 102//159 89//159 50//159
f 33//160 14//160 89//160
f 91//161 41//161 78//161
f 95//162 94//162 101//162
f 49//163 98//163 50//163
f 100//164 50//164 98//164
f 102//165 50//165 100//165
f 88//166 96//166 33//166
f 33//167 89//167 88//167
f 101//168 102//168 100//168
f 94//169 88//169 102//169
f 89//170 102//170 88//170
f 101//171 94//171 102//171
f 4//172 1//172 86//172
f 4//173 86//173 42//173
f 1//174 8//174 86//174
f 59//175 86//175 70//175
f 75//176 86//176 61//176
f 55//175 86//175 97//175
f 55//177 40//177 86//177
f 42//175 86//175 40//175
f 8//178 7//178 86//178
f 61//173 86//173 59//173
f 97//179 86//179 95//179
f 70//180 86//180 7//180
f 87//181 86//181 75//181
