# Blender v2.79 (sub 0) OBJ File: ''
# www.blender.org
mtllib link6.mtl
o Link6_Link6.003
v -0.044623 0.028378 0.016425
v -0.048005 -0.014747 0.003164
v -0.043919 -0.014745 0.019759
v 0.082446 -0.043985 0.051388
v -0.010917 -0.014281 0.047107
v -0.024988 -0.014744 0.041242
v -0.046709 0.028003 -0.007900
v -0.046934 -0.014834 -0.010732
v 0.083335 -0.043403 -0.020392
v -0.014513 0.031953 0.042906
v 0.052828 0.031754 0.051189
v 0.084025 0.044034 0.051216
v -0.046951 0.029664 0.001408
v -0.035119 -0.014812 0.033151
v 0.040446 0.055529 -0.018833
v 0.099598 0.039292 -0.048589
v 0.090083 0.036134 -0.071522
v 0.096210 0.043315 0.051223
v 0.043446 0.055119 0.017819
v 0.015562 0.056309 0.024034
v 0.113921 0.035382 -0.019367
v 0.103877 0.041045 -0.012659
v 0.112193 0.037192 0.051199
v -0.020125 0.021211 0.043108
v -0.029993 0.029048 0.035958
v -0.043011 0.027855 -0.020195
v -0.040367 -0.014752 -0.026331
v 0.096678 -0.043244 -0.014294
v 0.097130 -0.043143 0.051200
v -0.009168 0.021677 0.046587
v -0.037619 0.028484 0.028323
v 0.123994 0.025458 0.051197
v 0.121453 0.028662 -0.018448
v 0.108684 -0.011412 -0.074084
v 0.078251 0.024287 -0.079509
v 0.100013 0.024123 -0.075251
v 0.118023 0.008846 -0.068405
v 0.126265 -0.000245 -0.058419
v 0.120245 -0.006879 -0.066297
v 0.059885 -0.015544 -0.080214
v 0.057760 0.000354 -0.081278
v 0.067158 -0.007441 -0.081681
v 0.077314 -0.023509 -0.079608
v 0.129336 0.015630 0.051197
v -0.031455 0.035793 -0.029034
v -0.015126 0.052653 -0.020082
v -0.018070 0.040549 -0.034711
v 0.127329 0.019311 -0.017965
v -0.005128 0.054418 -0.024063
v -0.007400 0.054148 0.023724
v 0.053597 -0.031059 0.051187
v 0.086062 -0.040907 -0.049497
v 0.082371 -0.036209 -0.072672
v -0.028926 -0.014661 -0.038945
v 0.109158 -0.038847 0.051199
v 0.117111 -0.032890 -0.020645
v 0.122347 -0.027866 0.051200
v 0.111398 0.015605 -0.072297
v 0.065655 0.013335 -0.081334
v 0.113856 -0.016021 -0.070434
v 0.109980 -0.027204 -0.068092
v 0.100100 -0.023901 -0.075228
v 0.095384 -0.035672 -0.070337
v 0.015051 0.056206 -0.024085
v 0.102437 0.033798 -0.068088
v 0.074318 0.033919 -0.074768
v 0.129874 -0.014322 0.051199
v 0.132208 0.001350 0.051199
v 0.062339 0.024078 -0.077814
v -0.039733 0.037406 0.010686
v -0.035869 0.042117 -0.005669
v -0.040368 0.035457 -0.014930
v -0.027616 0.043835 -0.021411
v -0.022397 0.051059 0.011884
v -0.031783 0.038750 0.025374
v -0.025173 0.022046 -0.040277
v 0.125861 -0.022236 -0.020175
v 0.103422 -0.038909 -0.042110
v 0.124764 0.019519 -0.043403
v 0.121380 0.015205 -0.063099
v 0.118857 0.026578 -0.052366
v 0.086831 -0.029051 -0.076754
v 0.055642 0.012235 -0.079453
v -0.023225 0.031264 -0.039427
v 0.088525 0.027981 -0.076758
v 0.131421 0.006249 -0.021853
v -0.017132 0.040683 0.035457
v -0.034979 0.028510 -0.031425
v 0.120110 -0.027355 -0.042625
v 0.103585 -0.033878 -0.065560
v -0.023699 0.050651 -0.007574
v 0.131348 -0.007998 -0.009396
v 0.129079 -0.006632 -0.045296
v 0.124368 -0.018195 -0.048727
v 0.110567 0.026951 -0.067759
v 0.128215 0.005706 -0.049971
v 0.121277 -0.015132 -0.063276
v 0.070077 -0.030948 -0.076146
v 0.109491 -0.038422 -0.010677
v 0.109808 0.035077 -0.046044
v 0.112939 -0.033175 -0.045550
v 0.117625 -0.024898 -0.059065
vn -0.9710 0.0026 0.2391
vn -0.2540 -0.7025 0.6648
vn -0.9970 0.0103 -0.0769
vn -0.2390 -0.9692 0.0590
vn -0.2150 -0.9766 -0.0105
vn -0.2150 -0.9766 -0.0106
vn -0.1159 0.2923 0.9493
vn -0.9874 0.0296 0.1556
vn -0.2766 -0.8934 0.3539
vn -0.2618 -0.9505 0.1673
vn 0.1640 0.9658 -0.2010
vn 0.0875 0.9746 0.2062
vn 0.4858 0.8740 -0.0105
vn -0.3848 0.0041 0.9230
vn -0.6239 0.0229 0.7811
vn -0.9217 -0.0013 -0.3880
vn -0.9993 0.0225 -0.0301
vn 0.0572 -0.9984 0.0011
vn -0.0770 0.0182 0.9969
vn -0.8356 0.0130 0.5492
vn 0.7051 0.7091 0.0069
vn 0.1921 0.0147 -0.9813
vn 0.7830 0.0273 -0.6214
vn -0.1096 -0.0809 -0.9907
vn 0.1739 -0.0014 -0.9848
vn 0.0562 0.9554 0.2899
vn -0.0009 -0.0061 1.0000
vn 0.0008 0.0007 1.0000
vn 0.0006 0.0002 1.0000
vn -0.4710 0.7239 -0.5041
vn -0.1163 0.2807 0.9527
vn 0.3577 0.9338 0.0098
vn 0.8786 0.4776 -0.0001
vn -0.0937 0.9956 0.0012
vn -0.3036 0.0285 0.9524
vn -0.3046 0.1767 0.9359
vn -0.0633 -0.0008 0.9980
vn -0.1339 -0.2841 0.9494
vn -0.2197 -0.9700 -0.1038
vn -0.2201 -0.9706 -0.0978
vn -0.2533 -0.9380 -0.2365
vn 0.6398 -0.7685 0.0071
vn 0.0156 -0.9998 -0.0079
vn 0.2761 0.0358 -0.9605
vn -0.0308 0.0145 -0.9994
vn 0.4755 -0.3351 -0.8134
vn 0.0779 -0.9746 -0.2100
vn 0.1972 -0.0018 -0.9804
vn 0.1217 0.0254 -0.9922
vn 0.0272 0.9996 -0.0024
vn 0.0443 0.9990 0.0075
vn 0.2423 0.9425 -0.2303
vn -0.0362 0.8985 -0.4375
vn 0.0002 -0.0002 1.0000
vn -0.0006 0.0001 1.0000
vn 0.0005 0.0001 1.0000
vn 0.0137 -0.0156 0.9998
vn -0.1053 0.2801 -0.9542
vn -0.7419 0.6703 0.0178
vn -0.6154 0.7505 -0.2407
vn 0.2231 0.9748 -0.0079
vn 0.6659 0.7460 -0.0028
vn -0.2036 0.9790 0.0025
vn -0.0883 0.9961 -0.0012
vn -0.0781 0.8757 -0.4764
vn -0.0841 0.8114 0.5783
vn -0.6227 0.5216 0.5833
vn -0.5684 0.0342 0.8220
vn -0.2278 -0.9607 -0.1585
vn -0.6355 0.6689 -0.3856
vn -0.4405 0.0125 -0.8976
vn -0.0002 0.0002 1.0000
vn 0.7730 -0.6343 -0.0120
vn 0.3364 -0.9417 -0.0009
vn 0.1612 -0.9803 -0.1137
vn -0.8616 0.0251 0.5070
vn -0.7223 0.6046 0.3357
vn 0.8468 0.5318 -0.0064
vn 0.8732 0.4227 -0.2426
vn 0.5641 -0.0207 -0.8254
vn 0.5666 -0.0303 -0.8234
vn 0.5107 0.0056 -0.8597
vn 0.1880 -0.0393 -0.9814
vn 0.1825 -0.1841 -0.9658
vn 0.0824 0.9579 -0.2750
vn -0.0024 0.0102 0.9999
vn -0.3639 0.3265 -0.8723
vn -0.4505 0.7180 -0.5306
vn 0.1899 0.1891 -0.9634
vn 0.2233 0.9747 -0.0074
vn 0.2289 0.9706 -0.0746
vn 0.9804 0.1971 0.0027
vn -0.4721 0.7896 0.3920
vn -0.1749 0.9846 -0.0027
vn -0.1321 0.7037 0.6981
vn -0.7085 0.0377 0.7047
vn -0.9573 0.0241 -0.2882
vn -0.7407 0.0132 -0.6717
vn 0.7728 -0.6323 -0.0538
vn 0.4770 -0.6720 -0.5665
vn 0.0489 -0.9955 -0.0808
vn -0.7676 0.6354 -0.0840
vn -0.5718 0.8201 0.0211
vn -0.7293 0.5365 0.4246
vn 0.9891 -0.1473 0.0087
vn 0.9959 -0.0622 -0.0653
vn 0.9315 -0.3503 -0.0983
vn 0.4251 0.4674 -0.7751
vn 0.9125 0.3377 -0.2307
vn 0.7492 0.5349 -0.3906
vn 0.6947 -0.1690 -0.6992
vn 0.6682 -0.3671 -0.6471
vn 0.2759 -0.4610 -0.8434
vn 0.0166 -0.4352 -0.9002
vn 0.0262 -0.5075 -0.8613
vn -0.3776 -0.4618 -0.8026
vn -0.1955 0.1148 -0.9740
vn -0.2960 0.5581 -0.7752
vn -0.6201 0.7806 0.0783
vn 0.0699 0.4634 -0.8834
vn 0.1005 0.5240 -0.8458
vn 0.9532 0.3021 -0.0116
vn 0.9498 0.2915 -0.1139
vn 0.9420 0.3226 -0.0924
vn -0.6084 0.7496 0.2607
vn -0.1410 0.6178 0.7736
vn -0.3534 0.7544 -0.5531
vn -0.2806 -0.8911 -0.3566
vn -0.6550 0.0396 -0.7546
vn -0.4293 0.0619 -0.9010
vn 0.8741 -0.4857 0.0047
vn 0.3655 -0.9291 -0.0562
vn 0.5854 -0.8108 -0.0024
vn -0.8102 0.5730 -0.1233
vn -0.8155 0.5521 0.1737
vn -0.4348 0.2434 0.8670
vn -0.4303 0.5078 0.7463
vn -0.5092 0.5899 0.6267
vn 0.9998 -0.0155 -0.0118
vn 0.6692 0.7368 -0.0965
vn 0.9365 -0.3505 -0.0138
vn 0.9191 -0.2979 -0.2580
vn 0.9763 -0.0134 -0.2159
vn 0.6482 0.3232 -0.6895
vn 0.6187 0.7194 -0.3158
vn 0.4148 0.8898 -0.1903
vn 0.8288 -0.0980 -0.5509
vn 0.9202 0.1868 -0.3439
vn 0.6628 0.2416 -0.7088
vn 0.3176 -0.9276 -0.1968
vn -0.4195 -0.1163 -0.9003
vn -0.1021 0.4055 -0.9084
vn 0.1682 -0.5653 -0.8075
vn -0.1156 -0.3245 -0.9388
vn -0.0336 -0.1487 -0.9883
vn -0.2322 0.7193 -0.6547
vn -0.4397 0.7493 0.4952
vn -0.2340 0.9722 -0.0047
vn -0.8138 0.0330 -0.5801
vn -0.8425 0.4724 -0.2591
vn -0.7158 0.5048 -0.4825
vn -0.4837 0.5947 -0.6422
vn -0.7119 0.5500 -0.4367
vn 0.3533 -0.9355 -0.0045
vn 0.4951 -0.8657 -0.0730
vn 0.6129 -0.7150 -0.3364
vn 0.5099 -0.8560 -0.0852
vn 0.8207 0.5630 -0.0974
vn 0.8458 0.5273 -0.0810
vn 0.8560 -0.4383 -0.2741
vn 0.9477 -0.3110 -0.0717
vn 0.4755 0.3565 -0.8043
vn 0.9291 -0.2126 -0.3027
vn 0.8008 0.0732 -0.5944
vn 0.4286 -0.2142 -0.8777
vn 0.4004 -0.4838 -0.7782
vn 0.7252 -0.4828 -0.4909
vn 0.1809 -0.9699 -0.1627
vn 0.4577 -0.8699 -0.1835
vn -0.2899 0.5869 -0.7560
vn -0.2050 0.2470 -0.9471
vn 0.3186 0.5112 -0.7983
vn 0.3995 0.9121 -0.0921
vn 0.4489 0.8901 -0.0794
vn 0.6398 0.7610 -0.1074
vn -0.5829 0.7821 -0.2203
vn -0.4131 0.1698 -0.8947
vn -0.5659 0.4912 -0.6622
vn -0.5828 0.1958 -0.7887
vn 0.6515 -0.7520 -0.1005
vn 0.8699 -0.4800 -0.1134
vn 0.8292 -0.5208 -0.2031
vn 0.9932 0.0265 -0.1138
vn 0.5721 0.7853 -0.2368
vn 0.2714 0.4828 -0.8326
vn -0.5422 0.8044 -0.2428
vn 0.6019 -0.7568 -0.2548
vn 0.6662 -0.7163 -0.2077
vn -0.0001 -0.0004 1.0000
vn -0.0009 -0.0000 1.0000
usemtl None
s off
f 1//1 2//1 3//1
f 4//2 5//2 6//2
f 7//3 8//3 2//3
f 2//4 4//4 3//4
f 8//5 4//5 2//5
f 9//6 4//6 8//6
f 10//7 11//7 12//7
f 13//8 2//8 1//8
f 4//9 6//9 14//9
f 4//10 14//10 3//10
f 15//11 16//11 17//11
f 18//12 19//12 20//12
f 21//13 22//13 23//13
f 5//14 24//14 6//14
f 14//15 6//15 25//15
f 8//16 26//16 27//16
f 7//17 2//17 13//17
f 4//18 28//18 29//18
f 30//19 5//19 11//19
f 14//20 31//20 3//20
f 32//21 33//21 23//21
f 34//22 35//22 36//22
f 37//23 38//23 39//23
f 40//24 41//24 42//24
f 34//25 43//25 35//25
f 12//26 18//26 20//26
f 18//27 12//27 23//27
f 32//28 23//28 12//28
f 32//29 12//29 44//29
f 45//30 46//30 47//30
f 10//31 30//31 11//31
f 18//32 23//32 22//32
f 48//33 32//33 44//33
f 49//34 50//34 20//34
f 30//35 24//35 5//35
f 24//36 30//36 10//36
f 51//37 11//37 5//37
f 51//38 5//38 4//38
f 52//39 9//39 27//39
f 8//40 27//40 9//40
f 53//41 27//41 54//41
f 55//42 56//42 57//42
f 4//43 9//43 28//43
f 36//44 58//44 34//44
f 41//45 59//45 42//45
f 60//46 61//46 62//46
f 52//47 53//47 63//47
f 43//48 42//48 35//48
f 35//49 42//49 59//49
f 20//50 15//50 64//50
f 19//51 15//51 20//51
f 16//52 65//52 17//52
f 66//53 64//53 17//53
f 55//54 67//54 29//54
f 44//55 67//55 68//55
f 12//56 67//56 44//56
f 67//57 4//57 29//57
f 69//58 35//58 59//58
f 70//59 71//59 13//59
f 72//60 71//60 73//60
f 22//61 19//61 18//61
f 33//62 21//62 23//62
f 50//63 46//63 74//63
f 49//64 20//64 64//64
f 66//65 49//65 64//65
f 12//66 20//66 50//66
f 75//67 31//67 25//67
f 24//68 25//68 6//68
f 52//69 27//69 53//69
f 45//70 72//70 73//70
f 76//71 41//71 54//71
f 57//72 67//72 55//72
f 56//73 77//73 57//73
f 28//74 55//74 29//74
f 28//75 52//75 78//75
f 31//76 1//76 3//76
f 70//77 1//77 75//77
f 32//78 48//78 33//78
f 79//79 80//79 81//79
f 60//80 34//80 39//80
f 34//81 37//81 39//81
f 58//82 37//82 34//82
f 34//83 62//83 43//83
f 82//84 43//84 62//84
f 15//85 17//85 64//85
f 67//86 51//86 4//86
f 69//87 83//87 84//87
f 46//88 45//88 73//88
f 35//89 85//89 36//89
f 19//90 22//90 15//90
f 22//91 16//91 15//91
f 68//92 86//92 44//92
f 50//93 74//93 75//93
f 46//94 50//94 49//94
f 12//95 50//95 87//95
f 31//96 14//96 25//96
f 8//97 7//97 26//97
f 27//98 88//98 54//98
f 89//99 77//99 56//99
f 61//100 90//100 63//100
f 52//101 28//101 9//101
f 71//102 72//102 13//102
f 91//103 71//103 74//103
f 1//104 31//104 75//104
f 92//105 68//105 67//105
f 86//106 92//106 93//106
f 94//107 93//107 77//107
f 65//108 95//108 36//108
f 80//109 79//109 96//109
f 80//110 95//110 81//110
f 39//111 97//111 60//111
f 97//112 61//112 60//112
f 62//113 63//113 82//113
f 43//114 82//114 98//114
f 53//115 98//115 82//115
f 54//116 40//116 98//116
f 59//117 41//117 83//117
f 84//118 47//118 66//118
f 74//119 71//119 70//119
f 35//120 66//120 85//120
f 85//121 66//121 17//121
f 44//122 86//122 48//122
f 79//123 86//123 96//123
f 86//124 79//124 48//124
f 70//125 75//125 74//125
f 87//126 10//126 12//126
f 46//127 49//127 47//127
f 53//128 54//128 98//128
f 54//129 88//129 76//129
f 76//130 83//130 41//130
f 77//131 67//131 57//131
f 78//132 99//132 28//132
f 55//133 99//133 56//133
f 72//134 7//134 13//134
f 13//135 1//135 70//135
f 24//136 10//136 25//136
f 87//137 25//137 10//137
f 75//138 25//138 87//138
f 92//139 86//139 68//139
f 81//140 21//140 33//140
f 77//141 92//141 67//141
f 94//142 97//142 93//142
f 38//143 96//143 93//143
f 80//144 58//144 95//144
f 65//145 81//145 95//145
f 100//146 65//146 16//146
f 39//147 38//147 97//147
f 38//148 80//148 96//148
f 37//149 58//149 80//149
f 90//150 78//150 63//150
f 54//151 41//151 40//151
f 35//152 69//152 66//152
f 82//153 63//153 53//153
f 43//154 98//154 40//154
f 40//155 42//155 43//155
f 49//156 66//156 47//156
f 87//157 50//157 75//157
f 46//158 91//158 74//158
f 26//159 88//159 27//159
f 26//160 7//160 72//160
f 45//161 88//161 26//161
f 84//162 45//162 47//162
f 45//163 26//163 72//163
f 28//164 99//164 55//164
f 78//165 101//165 56//165
f 102//166 90//166 61//166
f 78//167 56//167 99//167
f 33//168 79//168 81//168
f 79//169 33//169 48//169
f 102//170 97//170 94//170
f 93//171 92//171 77//171
f 58//172 36//172 95//172
f 93//173 97//173 38//173
f 37//174 80//174 38//174
f 34//175 60//175 62//175
f 61//176 63//176 62//176
f 97//177 102//177 61//177
f 63//178 78//178 52//178
f 90//179 101//179 78//179
f 66//180 69//180 84//180
f 83//181 69//181 59//181
f 17//182 65//182 36//182
f 16//183 22//183 100//183
f 100//184 22//184 21//184
f 81//185 100//185 21//185
f 71//186 91//186 73//186
f 83//187 76//187 84//187
f 84//188 88//188 45//188
f 76//189 88//189 84//189
f 56//190 101//190 89//190
f 77//191 89//191 94//191
f 102//192 94//192 89//192
f 96//193 86//193 93//193
f 81//194 65//194 100//194
f 85//195 17//195 36//195
f 91//196 46//196 73//196
f 90//197 102//197 101//197
f 101//198 102//198 89//198
f 67//199 12//199 51//199
f 12//200 11//200 51//200
