# Blender v2.79 (sub 0) OBJ File: ''
# www.blender.org
mtllib link5.mtl
o Link5_Link5.001
v -0.043130 -0.258994 -0.034598
v -0.049491 -0.007973 -0.104632
v -0.027600 -0.173066 -0.088409
v -0.029237 0.038075 -0.015796
v -0.038999 0.028229 -0.015812
v -0.007860 -0.216166 0.051413
v 0.011487 -0.258996 -0.054236
v -0.007970 -0.259003 -0.054581
v -0.000707 -0.198830 -0.085375
v 0.045218 0.016179 -0.015812
v 0.045246 0.024398 -0.101018
v 0.040147 0.026312 -0.015803
v 0.052580 -0.259000 -0.017422
v 0.050526 0.003046 -0.103338
v 0.055083 -0.259005 0.002321
v 0.047668 0.005726 -0.015861
v 0.031288 0.036584 -0.015806
v 0.030516 0.042053 -0.098952
v 0.020163 0.048192 -0.098248
v -0.049008 0.014702 -0.101881
v -0.050406 0.000262 -0.103940
v -0.047662 0.005784 -0.015861
v -0.045413 0.023883 -0.101011
v -0.040353 0.032255 -0.100177
v -0.038660 0.024701 -0.108339
v -0.050298 -0.259002 -0.022377
v -0.023453 -0.221382 0.047983
v -0.045252 0.016002 -0.015805
v 0.037409 0.035842 -0.099821
v -0.017632 0.044786 -0.015806
v -0.004649 0.052168 -0.097802
v -0.019825 0.048275 -0.098533
v -0.002655 0.047984 -0.015805
v 0.015182 0.035517 -0.116651
v 0.010322 0.027241 -0.125617
v 0.007445 0.037264 -0.117539
v 0.049514 -0.008035 -0.104438
v 0.043474 -0.258998 -0.034016
v -0.011393 -0.199691 -0.084303
v -0.022230 -0.194700 -0.084040
v -0.026016 -0.258996 -0.048977
v -0.015768 0.010706 -0.128209
v -0.016435 0.025051 -0.125262
v -0.004211 0.016533 -0.128983
v -0.002979 0.028930 -0.125747
v -0.034141 0.039097 -0.099325
v -0.025397 0.045450 -0.098560
v -0.027126 0.039382 -0.105324
v 0.044603 0.009724 -0.109300
v 0.048581 0.015875 -0.101810
v 0.005702 0.007863 -0.129778
v -0.006807 0.011324 -0.129518
v 0.008238 0.014707 -0.128888
v 0.020267 0.032245 -0.117145
v 0.021609 0.021486 -0.124624
v 0.027149 -0.175367 -0.088218
v 0.016970 -0.200849 -0.082864
v 0.030975 -0.259001 -0.045755
v 0.010850 -0.197911 -0.085165
v 0.010180 -0.000721 -0.129396
v 0.018286 -0.005254 -0.127374
v 0.008646 -0.009444 -0.128414
v 0.052146 -0.243011 0.017477
v 0.054317 -0.258986 0.010114
v 0.002603 0.047947 -0.105303
v 0.013170 0.045491 -0.105957
v -0.028201 0.013646 -0.123798
v -0.032903 0.000226 -0.122164
v -0.041418 0.007594 -0.113500
v -0.014582 0.000608 -0.128709
v -0.004047 0.002559 -0.129904
v -0.016543 -0.007896 -0.127324
v -0.006340 -0.006773 -0.129112
v -0.034761 0.017193 -0.116530
v -0.043473 0.015850 -0.108215
v -0.028435 0.023551 -0.118371
v -0.053972 -0.259007 -0.011547
v 0.008457 0.051580 -0.097855
v 0.014791 0.045936 -0.015774
v -0.014812 -0.219569 0.050694
v -0.005146 -0.245451 0.054597
v -0.011150 -0.233902 0.053091
v -0.011589 -0.248529 0.053809
v 0.033069 -0.002943 -0.121645
v 0.024511 -0.002052 -0.125729
v 0.031426 0.006909 -0.122907
v 0.040191 0.003949 -0.115285
v 0.042523 -0.006256 -0.112999
v -0.008002 0.046502 -0.106305
v -0.000101 0.038153 -0.117598
v 0.018216 0.008189 -0.127911
v 0.023166 -0.191089 -0.084957
v 0.047339 -0.000015 -0.107777
v 0.014666 -0.183272 -0.089405
v -0.020300 -0.177150 -0.089922
v 0.003135 -0.258948 0.055128
v -0.001501 -0.234891 0.054086
v 0.036992 -0.231671 0.040836
v 0.026981 0.038056 -0.106874
v 0.020798 0.043209 -0.105010
v -0.020944 0.004685 -0.127182
v -0.010877 -0.186003 -0.089085
v 0.000367 -0.185536 -0.089818
v -0.023461 -0.003386 -0.125996
v -0.021875 0.030877 -0.117390
v -0.030896 0.031109 -0.110555
v -0.055017 -0.258986 0.004388
v -0.053213 -0.245524 0.013911
v 0.041120 0.013545 -0.112056
v 0.032510 0.019462 -0.117444
v 0.038673 0.025256 -0.107987
v 0.026521 0.015798 -0.124106
v -0.005993 0.039041 -0.115866
v -0.015879 0.040196 -0.111456
v -0.013213 0.033896 -0.118951
v 0.009960 -0.214368 0.050737
v 0.017403 -0.220985 0.050181
v -0.041061 -0.004035 -0.114696
v -0.011763 -0.259001 0.053896
v 0.003435 -0.214300 0.051526
v 0.029629 0.029617 -0.112933
v 0.048872 -0.239856 0.025426
v 0.040819 -0.234122 0.037129
v 0.042926 -0.259000 0.034475
v 0.045144 -0.235642 0.031605
v 0.034012 -0.258999 0.043461
v 0.011211 -0.259006 0.053977
v 0.012804 -0.244006 0.053442
v 0.026756 -0.237477 0.048162
v 0.020007 -0.239239 0.051225
v 0.022528 -0.258997 0.050277
v 0.031565 -0.234630 0.045209
v -0.046071 -0.236400 0.030231
v -0.046492 -0.259049 0.029710
v -0.042351 -0.234111 0.035317
v -0.049871 -0.241469 0.023523
v -0.052037 -0.259016 0.018093
v -0.032165 -0.237578 0.044844
v -0.036886 -0.259013 0.040848
v -0.025513 -0.259017 0.048914
v -0.025472 -0.236436 0.048787
v -0.031338 -0.227250 0.044683
v 0.048748 -0.259002 0.025715
v 0.008180 -0.232618 0.053460
v 0.024104 -0.223965 0.048184
v 0.031089 -0.223477 0.044128
v -0.017817 -0.188987 -0.087081
v -0.049720 -0.264554 0.003351
v -0.049702 -0.264544 -0.003472
v -0.038037 -0.232196 0.039882
v -0.019695 -0.242356 0.051360
v -0.018435 -0.232533 0.051272
vn -0.8486 -0.1620 -0.5036
vn -0.2336 0.2301 0.9447
vn 0.0159 -0.4570 -0.8893
vn 0.8935 0.4471 0.0434
vn 0.9915 -0.0335 -0.1257
vn 0.9990 0.0302 0.0317
vn 0.5119 0.8575 0.0516
vn -0.9954 0.0927 0.0252
vn -0.6761 0.4655 -0.5711
vn -0.8569 0.5141 0.0383
vn -0.8513 -0.1609 -0.4994
vn -0.3976 0.2039 0.8946
vn 0.6717 0.7396 0.0424
vn -0.1393 0.2421 0.9602
vn -0.2504 0.9670 0.0474
vn -0.2085 0.9765 0.0549
vn 0.2299 0.6499 -0.7244
vn 0.8662 -0.1542 -0.4753
vn -0.0532 -0.4498 -0.8915
vn -0.2651 -0.4496 -0.8530
vn -0.9726 0.2292 0.0390
vn -0.1614 0.1914 -0.9682
vn -0.1099 0.2613 -0.9590
vn -0.7093 0.7032 0.0503
vn -0.4724 0.7127 -0.5186
vn -0.5897 0.8064 0.0445
vn 0.7943 0.1892 -0.5773
vn 0.9888 0.1466 0.0278
vn 0.0137 0.1238 -0.9922
vn 0.3530 0.5634 -0.7470
vn 0.1949 0.2172 -0.9565
vn 0.0410 0.2486 -0.9677
vn 0.8474 -0.1623 -0.5056
vn 0.3584 -0.4394 -0.8237
vn 0.1184 -0.4476 -0.8864
vn 0.1658 -0.1391 -0.9763
vn 0.9800 0.0437 0.1942
vn 0.9946 0.0346 0.0977
vn 0.1413 0.7728 -0.6188
vn -0.6468 0.1352 -0.7506
vn -0.1542 0.1767 -0.9721
vn -0.1141 0.0078 -0.9934
vn -0.1581 -0.1231 -0.9797
vn -0.6731 0.3570 -0.6476
vn -0.2909 0.1796 -0.9397
vn -0.4922 0.4093 -0.7682
vn -0.9421 -0.1017 -0.3196
vn -0.6014 -0.3549 -0.7158
vn -0.2267 -0.4468 -0.8654
vn 0.0379 0.8861 -0.4620
vn 0.0450 0.9977 0.0498
vn 0.1163 0.9915 0.0592
vn -0.3330 0.2140 0.9183
vn -0.2126 0.2339 0.9487
vn -0.1461 0.0529 0.9879
vn -0.4999 0.8644 0.0538
vn 0.9318 0.3614 0.0352
vn 0.4265 -0.0445 -0.9034
vn 0.6587 0.0135 -0.7523
vn 0.6725 -0.0121 -0.7400
vn -0.4518 0.8907 0.0495
vn -0.3706 0.7365 -0.5659
vn -0.1945 0.8499 -0.4897
vn -0.0641 0.8419 -0.5358
vn -0.0489 0.7865 -0.6157
vn 0.1603 0.8316 -0.5317
vn 0.2134 0.1828 -0.9597
vn 0.1452 0.0744 -0.9866
vn 0.6478 -0.3236 -0.6897
vn 0.6664 -0.3096 -0.6783
vn 0.7669 0.1168 -0.6311
vn 0.0520 -0.4507 -0.8912
vn 0.3943 -0.4250 -0.8148
vn 0.1924 -0.3189 -0.9280
vn -0.1462 -0.2104 -0.9666
vn 0.0094 0.0451 0.9989
vn 0.6498 0.1488 0.7454
vn 0.3762 0.6792 -0.6302
vn 0.3759 0.6793 -0.6303
vn -0.1466 0.0318 -0.9887
vn -0.3102 0.1056 -0.9448
vn -0.3952 0.0267 -0.9182
vn -0.0094 0.0411 -0.9991
vn -0.0478 -0.3279 -0.9435
vn -0.2497 -0.0993 -0.9632
vn -0.2197 0.0225 -0.9753
vn -0.2679 -0.0578 -0.9617
vn -0.3043 -0.1989 -0.9316
vn -0.6871 0.2626 -0.6775
vn -0.8895 0.4549 0.0438
vn -0.6620 0.2344 -0.7119
vn -0.7548 0.2099 -0.6215
vn -0.7779 0.1618 -0.6072
vn -0.4734 0.5192 -0.7115
vn -0.5848 0.4833 -0.6515
vn -0.7424 0.6686 0.0438
vn -0.6021 0.5198 -0.6060
vn -0.9978 -0.0096 -0.0654
vn -0.6701 -0.3032 -0.6775
vn 0.2791 0.9592 0.0444
vn 0.2256 0.8373 -0.4980
vn -0.9902 0.0378 0.1342
vn 0.4925 0.8685 0.0558
vn 0.7564 0.6523 0.0493
vn 0.7547 0.2504 -0.6065
vn 0.6612 0.3657 -0.6550
vn 0.7145 0.1601 -0.6810
vn 0.0434 0.2456 -0.9684
vn 0.6387 0.2544 -0.7262
vn 0.6374 0.2703 -0.7216
vn 0.3595 0.0728 -0.9303
vn 0.3559 0.0197 -0.9343
vn 0.6790 0.1743 -0.7132
vn -0.1923 0.7536 -0.6285
vn -0.3441 0.6251 -0.7006
vn 0.0887 0.6404 -0.7629
vn 0.0820 0.6454 -0.7594
vn 0.1466 0.0325 -0.9887
vn 0.6325 -0.1683 -0.7561
vn 0.4071 -0.1873 -0.8940
vn 0.9719 -0.0664 -0.2256
vn 0.7479 0.1077 -0.6551
vn 0.0402 -0.2876 -0.9569
vn 0.0781 -0.3217 -0.9436
vn 0.1940 -0.3219 -0.9267
vn 0.2517 -0.2573 -0.9330
vn 0.0289 -0.0294 -0.9992
vn 0.0152 -0.0883 -0.9960
vn 0.2699 0.2250 0.9362
vn 0.2623 0.2264 0.9380
vn 0.2385 0.7321 -0.6380
vn 0.0210 0.0918 -0.9956
vn -0.1017 -0.0593 -0.9930
vn -0.3082 -0.1987 -0.9303
vn -0.5880 0.3779 -0.7151
vn -0.6129 0.4152 -0.6723
vn -0.5000 0.5385 -0.6782
vn -0.7605 -0.0299 -0.6487
vn -0.0824 -0.0113 0.9965
vn -0.1263 0.0104 0.9919
vn -0.9991 0.0300 0.0292
vn -0.0315 0.1308 0.9909
vn 0.5865 0.4620 -0.6652
vn 0.5456 0.4646 -0.6974
vn 0.7223 0.3387 -0.6030
vn 0.7003 0.3604 -0.6161
vn 0.9730 0.2279 0.0372
vn 0.7674 -0.0577 -0.6386
vn -0.2171 0.7078 -0.6722
vn -0.1619 0.6646 -0.7295
vn -0.2052 0.6168 -0.7599
vn -0.0654 0.7800 -0.6224
vn -0.2556 0.7828 -0.5674
vn -0.3487 0.6527 -0.6726
vn 0.4665 0.5434 -0.6979
vn 0.3180 0.6045 -0.7304
vn 0.0955 0.7683 -0.6330
vn 0.4108 0.7520 -0.5155
vn 0.4293 0.7147 -0.5522
vn 0.3015 0.7809 -0.5471
vn 0.2943 0.7259 -0.6217
vn 0.2730 -0.0370 -0.9613
vn 0.2856 0.1607 -0.9448
vn 0.8179 -0.0176 -0.5751
vn 0.0073 -0.2144 -0.9767
vn -0.0700 -0.3111 -0.9478
vn -0.1147 -0.2138 -0.9701
vn 0.9315 0.0648 0.3580
vn 0.7875 0.0009 0.6163
vn 0.7099 -0.0150 0.7041
vn 0.6935 -0.0064 0.7204
vn 0.1411 0.0204 0.9898
vn 0.4114 0.0087 0.9114
vn 0.1394 0.2427 0.9600
vn 0.5103 -0.0158 0.8599
vn 0.5268 -0.0081 0.8500
vn 0.5155 0.6502 -0.5581
vn 0.0255 -0.1163 -0.9929
vn -0.6892 0.0532 -0.7226
vn -0.7451 0.0456 -0.6654
vn -0.7025 0.3736 -0.6058
vn -0.4662 0.6147 -0.6362
vn -0.5280 0.6125 -0.5883
vn -0.4296 -0.1853 -0.8838
vn -0.9588 -0.0836 -0.2716
vn -0.8074 0.0014 0.5900
vn -0.9023 -0.0219 0.4306
vn -0.5783 -0.0246 0.8154
vn -0.4510 0.1078 0.8860
vn -0.4925 0.1834 0.8508
vn -0.5137 0.0545 0.8562
vn 0.0275 0.2492 0.9681
vn 0.5533 0.4120 -0.7240
vn 0.6569 0.5081 -0.5570
vn 0.8263 0.5620 0.0368
vn 0.7475 -0.1623 -0.6441
vn -0.1117 0.6773 -0.7272
vn 0.2219 -0.0378 -0.9743
vn 0.3425 -0.1938 -0.9193
vn 0.1940 -0.2084 -0.9586
vn 0.2221 -0.2077 -0.9526
vn 0.0624 -0.2165 -0.9743
vn 0.9246 -0.0002 0.3810
vn 0.9415 -0.0270 0.3361
vn 0.7309 0.1273 0.6706
vn 0.6252 0.0068 0.7804
vn 0.0373 0.1145 0.9927
vn 0.3108 -0.0060 0.9505
vn 0.4805 0.0929 0.8720
vn 0.6342 0.1522 0.7580
vn 0.4837 0.1854 0.8554
vn 0.5896 0.1028 0.8011
vn -0.3815 -0.0168 -0.9242
vn -0.1619 -0.2622 -0.9513
vn -0.5657 0.5859 -0.5802
vn -0.6161 -0.1687 -0.7694
vn -0.7244 -0.1619 -0.6701
vn -0.1827 -0.3483 -0.9194
vn -0.1319 -0.3225 -0.9373
vn -0.0059 -0.9935 0.1136
vn 0.0072 -0.9949 0.1004
vn -0.0524 -0.9876 0.1479
vn 0.0262 -0.9966 0.0777
vn -0.1351 -0.9725 0.1900
vn 0.0365 -0.9974 0.0619
vn 0.0449 -0.9980 0.0445
vn -0.4980 -0.8346 0.2353
vn 0.0489 -0.9983 0.0327
vn 0.0523 -0.9985 0.0177
vn 0.0529 -0.9986 0.0077
vn -0.0451 -0.9886 -0.1440
vn -0.1754 -0.9622 -0.2086
vn 0.0022 -0.9944 -0.1060
vn -0.4148 -0.8766 -0.2439
vn -0.6063 -0.7681 -0.2060
vn 0.0309 -0.9969 -0.0717
vn -0.7553 -0.6535 -0.0487
vn -0.7248 -0.6889 -0.0030
vn 0.0441 -0.9979 -0.0467
vn 0.0503 -0.9983 -0.0277
vn 0.0532 -0.9986 -0.0070
vn 0.0529 -0.9986 -0.0014
vn -0.7255 -0.0064 0.6882
vn -0.9466 0.0173 0.3218
vn -0.0907 0.1105 0.9897
vn -0.1612 0.1226 0.9793
vn -0.6455 -0.0002 0.7638
vn -0.6108 0.0612 0.7894
vn -0.4019 0.0059 0.9157
vn -0.0505 0.2474 0.9676
vn -0.0528 0.2471 0.9675
vn 0.5891 0.5365 -0.6043
vn -0.3646 0.7355 -0.5711
vn 0.4613 0.6084 -0.6458
vn 0.7276 0.0126 -0.6859
vn 0.8328 -0.0111 0.5535
vn 0.0520 0.0532 0.9972
vn -0.3360 -0.2659 -0.9036
vn -0.7371 0.3437 -0.5818
vn -0.9317 0.3615 0.0352
vn -0.7020 -0.6959 0.1511
vn -0.9770 -0.0193 0.2124
vn -0.8717 0.0049 0.4901
vn -0.0941 0.0805 0.9923
vn -0.2222 0.1053 0.9693
vn -0.6479 0.1487 0.7470
vn -0.6463 0.1491 0.7483
vn -0.5083 0.0058 0.8612
vn 0.1188 0.2437 0.9625
vn 0.5324 0.5975 -0.5996
vn -0.3956 0.6607 -0.6379
vn 0.7970 0.1085 0.5942
vn 0.8569 0.0022 0.5155
vn 0.1080 0.0422 0.9933
vn 0.1202 0.1350 0.9835
vn 0.2922 0.0031 0.9563
vn -0.0545 -0.2163 -0.9748
vn -0.2740 -0.2784 -0.9205
vn -0.7466 0.1230 0.6538
vn -0.7571 -0.0211 0.6530
vn -0.2607 -0.9381 0.2279
vn -0.2803 0.0126 0.9598
vn 0.8775 0.0837 0.4723
vn 0.4052 0.2020 0.8916
vn 0.3634 0.2088 0.9079
vn 0.1859 0.1273 0.9743
vn 0.4939 0.1047 0.8632
vn -0.3803 0.1001 0.9194
vn -0.3593 0.0544 0.9316
vn -0.2596 0.0419 0.9648
vn -0.2322 0.0546 0.9711
vn 0.3955 0.0762 0.9153
vn -0.8241 0.1007 0.5575
vn -0.8918 0.0789 0.4455
vn -0.3406 -0.0191 0.9400
vn -0.9502 0.0573 0.3062
vn -0.3218 0.1318 0.9376
vn 0.3248 0.1001 0.9405
vn 0.2355 0.0940 0.9673
vn 0.2326 0.0886 0.9685
usemtl None
s off
f 1//1 2//1 3//1
f 4//2 5//2 6//2
f 7//3 8//3 9//3
f 10//4 11//4 12//4
f 13//5 14//5 15//5
f 15//6 14//6 16//6
f 17//7 18//7 19//7
f 20//8 21//8 22//8
f 23//9 24//9 25//9
f 5//10 24//10 23//10
f 1//11 26//11 2//11
f 27//12 5//12 28//12
f 29//13 18//13 17//13
f 30//14 4//14 6//14
f 31//15 32//15 30//15
f 31//16 30//16 33//16
f 34//17 35//17 36//17
f 37//18 13//18 38//18
f 39//19 9//19 8//19
f 40//20 8//20 41//20
f 28//21 20//21 22//21
f 42//22 43//22 44//22
f 44//23 43//23 45//23
f 4//24 46//24 5//24
f 47//25 48//25 46//25
f 46//26 4//26 47//26
f 14//27 49//27 50//27
f 50//28 16//28 14//28
f 51//29 52//29 53//29
f 35//30 54//30 55//30
f 53//31 35//31 55//31
f 45//32 35//32 44//32
f 56//33 37//33 38//33
f 7//34 57//34 58//34
f 57//35 7//35 59//35
f 60//36 61//36 62//36
f 63//37 64//37 16//37
f 64//38 15//38 16//38
f 65//39 66//39 36//39
f 67//40 68//40 69//40
f 42//41 44//41 52//41
f 70//42 52//42 71//42
f 72//43 70//43 73//43
f 74//44 75//44 25//44
f 67//45 43//45 42//45
f 67//46 76//46 43//46
f 77//47 2//47 26//47
f 1//48 40//48 41//48
f 40//49 39//49 8//49
f 78//50 65//50 31//50
f 31//51 33//51 78//51
f 78//52 33//52 79//52
f 27//53 80//53 5//53
f 6//54 5//54 80//54
f 81//55 82//55 83//55
f 4//56 30//56 47//56
f 50//57 11//57 10//57
f 84//58 85//58 86//58
f 86//59 87//59 84//59
f 84//60 87//60 88//60
f 47//61 30//61 32//61
f 32//62 48//62 47//62
f 31//63 89//63 32//63
f 89//64 31//64 65//64
f 65//65 90//65 89//65
f 65//66 78//66 66//66
f 91//67 53//67 55//67
f 91//68 51//68 53//68
f 92//69 38//69 58//69
f 56//70 38//70 92//70
f 93//71 49//71 14//71
f 9//72 59//72 7//72
f 92//73 58//73 57//73
f 92//74 59//74 94//74
f 73//75 95//75 72//75
f 81//76 96//76 97//76
f 98//77 16//77 10//77
f 99//78 54//78 100//78
f 100//79 54//79 34//79
f 70//80 42//80 52//80
f 42//81 101//81 67//81
f 101//82 68//82 67//82
f 51//83 71//83 52//83
f 102//84 103//84 39//84
f 72//85 104//85 70//85
f 42//86 70//86 101//86
f 101//87 70//87 104//87
f 3//88 104//88 95//88
f 74//89 69//89 75//89
f 23//90 28//90 5//90
f 69//91 74//91 67//91
f 20//92 75//92 69//92
f 20//93 69//93 21//93
f 76//94 105//94 43//94
f 76//95 25//95 106//95
f 46//96 24//96 5//96
f 106//97 25//97 24//97
f 77//98 107//98 21//98
f 1//99 3//99 40//99
f 19//100 78//100 79//100
f 78//101 19//101 66//101
f 107//102 108//102 22//102
f 79//103 17//103 19//103
f 29//104 17//104 12//104
f 50//105 49//105 109//105
f 110//106 111//106 109//106
f 49//107 87//107 109//107
f 53//108 44//108 35//108
f 86//109 112//109 109//109
f 112//110 110//110 109//110
f 91//111 112//111 86//111
f 85//112 91//112 86//112
f 109//113 87//113 86//113
f 113//114 114//114 89//114
f 115//115 43//115 105//115
f 45//116 36//116 35//116
f 36//117 45//117 90//117
f 91//118 60//118 51//118
f 56//119 84//119 88//119
f 85//120 84//120 56//120
f 37//121 14//121 13//121
f 93//122 87//122 49//122
f 59//123 9//123 94//123
f 103//124 94//124 9//124
f 59//125 92//125 57//125
f 94//126 56//126 92//126
f 51//127 60//127 71//127
f 73//128 71//128 60//128
f 116//129 117//129 12//129
f 116//130 12//130 17//130
f 36//131 66//131 34//131
f 52//132 44//132 53//132
f 73//133 70//133 71//133
f 104//134 72//134 95//134
f 74//135 76//135 67//135
f 74//136 25//136 76//136
f 105//137 76//137 106//137
f 21//138 118//138 2//138
f 96//139 81//139 119//139
f 119//140 81//140 83//140
f 107//141 22//141 21//141
f 120//142 6//142 97//142
f 111//143 110//143 121//143
f 121//144 110//144 55//144
f 11//145 50//145 109//145
f 111//146 11//146 109//146
f 50//147 10//147 16//147
f 93//148 37//148 88//148
f 114//149 113//149 115//149
f 115//150 113//150 45//150
f 115//151 45//151 43//151
f 89//152 90//152 113//152
f 114//153 32//153 89//153
f 105//154 114//154 115//154
f 55//155 54//155 121//155
f 34//156 54//156 35//156
f 90//157 65//157 36//157
f 19//158 18//158 100//158
f 99//159 100//159 18//159
f 100//160 66//160 19//160
f 66//161 100//161 34//161
f 91//162 85//162 61//162
f 112//163 91//163 55//163
f 93//164 14//164 37//164
f 73//165 62//165 103//165
f 9//166 39//166 103//166
f 102//167 95//167 73//167
f 122//168 63//168 16//168
f 123//169 124//169 125//169
f 123//170 126//170 124//170
f 123//171 98//171 126//171
f 96//172 127//172 128//172
f 129//173 130//173 131//173
f 79//174 116//174 17//174
f 129//175 131//175 126//175
f 132//176 129//176 126//176
f 29//177 99//177 18//177
f 60//178 62//178 73//178
f 118//179 69//179 68//179
f 118//180 21//180 69//180
f 25//181 75//181 23//181
f 105//182 106//182 48//182
f 106//183 46//183 48//183
f 104//184 3//184 68//184
f 21//185 2//185 77//185
f 133//186 134//186 135//186
f 136//187 137//187 134//187
f 138//188 139//188 140//188
f 141//189 27//189 142//189
f 28//190 142//190 27//190
f 141//191 142//191 138//191
f 120//192 79//192 33//192
f 110//193 112//193 55//193
f 11//194 111//194 29//194
f 11//195 29//195 12//195
f 37//196 56//196 88//196
f 45//197 113//197 90//197
f 60//198 91//198 61//198
f 61//199 85//199 56//199
f 62//200 61//200 94//200
f 94//201 61//201 56//201
f 94//202 103//202 62//202
f 63//203 122//203 143//203
f 63//204 143//204 64//204
f 98//205 123//205 16//205
f 98//206 132//206 126//206
f 97//207 144//207 120//207
f 131//208 130//208 127//208
f 132//209 145//209 129//209
f 146//210 98//210 10//210
f 10//211 145//211 146//211
f 132//212 98//212 146//212
f 68//213 101//213 104//213
f 147//214 95//214 102//214
f 24//215 46//215 106//215
f 118//216 68//216 3//216
f 2//217 118//217 3//217
f 147//218 39//218 40//218
f 39//219 147//219 102//219
f 96//220 119//220 148//220
f 127//221 96//221 148//221
f 148//222 119//222 140//222
f 131//223 127//223 148//223
f 148//224 140//224 139//224
f 126//225 131//225 148//225
f 148//226 124//226 126//226
f 148//227 134//227 137//227
f 148//228 143//228 124//228
f 148//229 64//229 143//229
f 148//230 15//230 64//230
f 149//231 41//231 8//231
f 1//232 41//232 149//232
f 149//233 8//233 7//233
f 149//234 26//234 1//234
f 77//235 26//235 149//235
f 7//236 58//236 149//236
f 149//237 107//237 77//237
f 149//238 148//238 107//238
f 58//239 38//239 149//239
f 149//240 38//240 13//240
f 13//241 15//241 149//241
f 15//242 148//242 149//242
f 150//243 135//243 139//243
f 136//244 108//244 137//244
f 97//245 6//245 82//245
f 82//246 6//246 80//246
f 138//247 150//247 139//247
f 138//248 142//248 150//248
f 140//249 151//249 141//249
f 30//250 6//250 120//250
f 120//251 33//251 30//251
f 29//252 111//252 121//252
f 114//253 48//253 32//253
f 99//254 121//254 54//254
f 88//255 87//255 93//255
f 124//256 143//256 125//256
f 96//257 144//257 97//257
f 95//258 40//258 3//258
f 20//259 23//259 75//259
f 20//260 28//260 23//260
f 137//261 107//261 148//261
f 137//262 108//262 107//262
f 133//263 136//263 134//263
f 97//264 82//264 81//264
f 152//265 82//265 80//265
f 142//266 28//266 22//266
f 142//267 22//267 150//267
f 138//268 140//268 141//268
f 120//269 116//269 79//269
f 29//270 121//270 99//270
f 114//271 105//271 48//271
f 16//272 123//272 125//272
f 122//273 125//273 143//273
f 128//274 144//274 96//274
f 144//275 116//275 120//275
f 128//276 127//276 130//276
f 103//277 102//277 73//277
f 95//278 147//278 40//278
f 135//279 150//279 22//279
f 139//280 135//280 134//280
f 134//281 148//281 139//281
f 151//282 119//282 83//282
f 125//283 122//283 16//283
f 10//284 12//284 145//284
f 12//285 117//285 145//285
f 116//286 144//286 117//286
f 132//287 146//287 145//287
f 27//288 141//288 152//288
f 141//289 151//289 152//289
f 152//290 151//290 83//290
f 152//291 83//291 82//291
f 145//292 130//292 129//292
f 133//293 135//293 22//293
f 136//294 133//294 22//294
f 151//295 140//295 119//295
f 108//296 136//296 22//296
f 152//297 80//297 27//297
f 117//298 130//298 145//298
f 130//299 144//299 128//299
f 144//300 130//300 117//300
