# Blender v2.79 (sub 0) OBJ File: 'lowpoly_stones.blend'
# www.blender.org
mtllib stone_cluster.mtl
o Cube.001
v 1.701883 0.005879 0.739676
v 1.615184 1.290872 0.223399
v 2.010541 0.229611 -0.502293
v 2.770304 0.554652 0.479281
v 1.861557 0.229639 1.504481
v 1.152948 0.445213 0.112702
v 2.257403 0.008114 0.265500
v 2.003578 1.186326 0.812691
v 2.081476 0.893049 -0.285579
v 2.621821 0.993838 0.876162
v 1.963945 0.893055 1.300321
v 0.976701 0.140980 0.437595
v 2.111153 0.039100 -0.195735
v 1.142982 0.003034 0.644936
v 1.344703 0.451873 -0.321268
v 2.638750 0.144618 0.422092
v 2.502737 0.843214 -0.202995
v 1.829976 0.012037 1.208661
v 2.519283 0.885976 1.075999
v 1.197659 0.672521 1.214889
v 1.903773 1.182866 0.029259
v 1.135997 1.048752 0.443206
v 2.349632 1.133003 0.770040
v 1.825220 1.128808 1.139667
v 1.980816 0.005127 0.501089
v 1.821673 1.261319 0.489358
v 1.998569 0.741389 -0.504972
v 2.603529 0.601991 0.657602
v 1.847658 0.742243 1.506170
v 0.851778 0.283019 0.428774
v 1.419119 0.032746 0.001670
v 2.544491 0.114637 -0.021427
v 2.558962 0.161937 1.162368
v 1.294402 0.029087 0.875874
v 1.174208 1.216348 0.132872
v 2.370891 1.261498 -0.010084
v 1.986325 1.220350 0.863516
v 1.333148 0.996774 0.938861
vn -0.0035 -0.9994 -0.0350
vn 0.1582 -0.9864 0.0434
vn -0.0366 -0.9975 0.0605
vn -0.3019 0.9177 0.2582
vn -0.0144 0.9852 -0.1706
vn -0.1681 0.9857 0.0075
vn -0.3672 0.2631 -0.8922
vn 0.6237 -0.2291 -0.7473
vn -0.2892 -0.7266 -0.6232
vn 0.8565 0.5143 0.0439
vn 0.9629 -0.0611 0.2628
vn 0.9387 -0.1097 -0.3269
vn 0.3834 -0.3564 0.8520
vn -0.4149 0.3373 0.8451
vn -0.5419 -0.5249 0.6564
vn -0.7522 -0.3322 -0.5691
vn -0.9370 0.3483 -0.0282
vn -0.9571 0.0339 -0.2878
vn -0.0132 -0.9986 -0.0512
vn 0.2797 -0.9571 -0.0754
vn 0.2172 -0.9716 0.0936
vn -0.2326 0.9527 0.1954
vn -0.4274 0.6775 -0.5986
vn 0.1533 0.9755 0.1576
vn -0.0208 0.7689 -0.6391
vn 0.0203 0.5884 -0.8083
vn 0.5119 0.0130 -0.8590
vn 0.8864 0.4483 -0.1156
vn 0.2811 0.8169 0.5036
vn 0.9797 -0.0050 0.2006
vn 0.4872 0.2380 0.8402
vn 0.3160 0.7514 0.5792
vn -0.2956 0.6482 0.7018
vn -0.5167 -0.7908 -0.3281
vn -0.7984 -0.3512 0.4891
vn -0.9291 0.2079 0.3058
usemtl Material.001
s off
f 1//1 14//1 31//1 25//1
f 1//2 25//2 33//2 18//2
f 1//3 18//3 34//3 14//3
f 2//4 22//4 38//4 26//4
f 2//5 26//5 36//5 21//5
f 2//6 21//6 35//6 22//6
f 3//7 15//7 35//7 27//7
f 3//8 27//8 32//8 13//8
f 3//9 13//9 31//9 15//9
f 4//10 17//10 36//10 28//10
f 4//11 28//11 33//11 16//11
f 4//12 16//12 32//12 17//12
f 5//13 18//13 33//13 29//13
f 5//14 29//14 38//14 20//14
f 5//15 20//15 34//15 18//15
f 6//16 15//16 31//16 30//16
f 6//17 30//17 38//17 22//17
f 6//18 22//18 35//18 15//18
f 7//19 25//19 31//19 13//19
f 7//20 13//20 32//20 16//20
f 7//21 16//21 33//21 25//21
f 8//22 26//22 38//22 24//22
f 8//23 24//23 37//23 23//23
f 8//24 23//24 36//24 26//24
f 9//25 27//25 35//25 21//25
f 9//26 21//26 36//26 17//26
f 9//27 17//27 32//27 27//27
f 10//28 28//28 36//28 23//28
f 10//29 23//29 37//29 19//29
f 10//30 19//30 33//30 28//30
f 11//31 29//31 33//31 19//31
f 11//32 19//32 37//32 24//32
f 11//33 24//33 38//33 29//33
f 12//34 30//34 31//34 14//34
f 12//35 14//35 34//35 20//35
f 12//36 20//36 38//36 30//36
o Cube
v -0.333118 -0.010713 -0.351585
v 0.293629 1.748082 -0.539287
v 1.313080 0.281267 -0.069875
v 0.269309 0.589492 1.101819
v -1.313057 0.281304 -0.069882
v 0.429827 0.562637 -1.126580
v 0.337676 -0.007796 0.325589
v -0.398996 1.529822 0.048114
v 1.071860 1.045486 0.610704
v -0.347972 1.338488 1.138962
v -1.071860 1.045489 0.610702
v -0.010037 0.165600 -1.324569
v 0.923826 0.032642 0.090687
v -0.263818 -0.014425 -1.088128
v 1.013150 0.571329 -0.918948
v 0.170723 0.170348 0.837028
v 1.140958 0.510610 1.156196
v -0.931110 -0.002677 -0.139565
v -0.932157 1.050573 0.951974
v -0.856604 0.751400 -0.803541
v 0.610969 1.525308 -0.157473
v -0.001465 1.522578 -0.899359
v -0.167747 1.890152 0.888630
v -1.053773 1.204743 0.186449
v 0.004343 -0.011693 -0.011616
v 0.004234 1.627691 -0.219869
v 1.297108 0.631681 0.327248
v -0.072836 0.601272 1.315188
v -1.297156 0.631623 0.327306
v -0.010626 0.350967 -1.488003
v 0.600048 0.024350 -0.790896
v 0.738839 0.131221 0.671501
v -0.800428 0.192950 0.804710
v -0.549745 0.019575 -0.868748
v 0.751919 1.106418 -0.593512
v 0.703849 1.350549 0.960597
v -0.663929 1.626462 0.697098
v -0.748860 1.201061 -0.701023
vn 0.0347 -0.9994 -0.0061
vn -0.0315 -0.9864 0.1610
vn -0.0631 -0.9975 -0.0320
vn -0.4442 0.8860 -0.1333
vn 0.1406 0.9659 0.2175
vn 0.6592 0.5170 -0.5461
vn 0.8658 0.4498 -0.2191
vn 0.6900 -0.5935 0.4143
vn 0.6001 -0.7266 -0.3346
vn 0.1368 0.1047 0.9850
vn 0.0761 -0.7211 0.6886
vn 0.0002 -0.6844 0.7291
vn -0.6864 -0.6443 0.3372
vn -0.8902 0.3322 -0.3116
vn -0.7217 -0.4159 -0.5533
vn 0.5119 -0.3322 -0.7922
vn -0.0788 0.4480 -0.8905
vn 0.4384 0.4832 -0.7578
vn 0.0500 -0.9986 -0.0170
vn 0.0959 -0.9571 0.2734
vn -0.0773 -0.9716 0.2236
vn -0.4263 0.8846 -0.1891
vn -0.4234 0.8548 -0.3001
vn 0.2980 0.9382 -0.1759
vn 0.8260 0.5297 -0.1927
vn 0.7329 0.6486 0.2053
vn 0.9346 -0.3320 0.1276
vn 0.1548 0.3207 0.9345
vn -0.5049 0.5121 0.6948
vn -0.4285 -0.0930 0.8987
vn -0.8151 -0.1311 0.5642
vn -0.8114 0.5345 0.2365
vn -0.9200 0.3451 -0.1856
vn 0.2890 -0.7908 -0.5396
vn -0.6056 -0.1808 -0.7750
vn -0.6202 0.0295 -0.7839
usemtl Material
s off
f 39//37 52//37 69//37 63//37
f 39//38 63//38 71//38 56//38
f 39//39 56//39 72//39 52//39
f 40//40 60//40 76//40 64//40
f 40//41 64//41 74//41 59//41
f 40//42 59//42 73//42 60//42
f 41//43 53//43 73//43 65//43
f 41//44 65//44 70//44 51//44
f 41//45 51//45 69//45 53//45
f 42//46 55//46 74//46 66//46
f 42//47 66//47 71//47 54//47
f 42//48 54//48 70//48 55//48
f 43//49 56//49 71//49 67//49
f 43//50 67//50 76//50 58//50
f 43//51 58//51 72//51 56//51
f 44//52 53//52 69//52 68//52
f 44//53 68//53 76//53 60//53
f 44//54 60//54 73//54 53//54
f 45//55 63//55 69//55 51//55
f 45//56 51//56 70//56 54//56
f 45//57 54//57 71//57 63//57
f 46//58 64//58 76//58 62//58
f 46//59 62//59 75//59 61//59
f 46//60 61//60 74//60 64//60
f 47//61 65//61 73//61 59//61
f 47//62 59//62 74//62 55//62
f 47//63 55//63 70//63 65//63
f 48//64 66//64 74//64 61//64
f 48//65 61//65 75//65 57//65
f 48//66 57//66 71//66 66//66
f 49//67 67//67 71//67 57//67
f 49//68 57//68 75//68 62//68
f 49//69 62//69 76//69 67//69
f 50//70 68//70 69//70 52//70
f 50//71 52//71 72//71 58//71
f 50//72 58//72 76//72 68//72
o Cube.002
v 0.768487 0.002220 1.597498
v 1.025528 0.757214 1.447466
v 1.577821 0.257056 1.263484
v 1.488550 0.333681 2.083728
v 0.450908 0.257218 2.008163
v 0.884055 0.318851 1.008142
v 1.283720 0.003831 1.705272
v 0.859826 0.852976 1.801713
v 1.707972 0.584145 1.610207
v 1.179985 0.670201 2.129416
v 0.718747 0.584147 2.263884
v 0.621125 0.099593 1.050850
v 1.482266 0.026162 1.418585
v 0.576171 0.000170 1.237044
v 1.216030 0.323651 0.926210
v 1.362509 0.102210 1.991743
v 1.711577 0.457910 1.851529
v 0.557519 0.006658 1.877248
v 0.889364 0.588312 2.380483
v 0.389694 0.423094 1.548643
v 1.276821 0.733629 1.459631
v 0.823300 0.739486 1.347935
v 1.057100 0.841492 2.084158
v 0.324349 0.513864 1.841975
v 1.027475 0.001678 1.651393
v 0.966320 0.819587 1.553583
v 1.726276 0.356980 1.413930
v 1.436282 0.501524 2.148346
v 0.531009 0.356948 2.203799
v 0.702221 0.278744 1.172531
v 1.064684 0.021583 1.110980
v 1.573868 0.080603 1.742511
v 0.905221 0.114692 2.272527
v 0.511224 0.018946 1.425174
v 1.194752 0.619152 1.155685
v 1.645626 0.753937 1.886586
v 0.855816 0.770000 2.199170
v 0.470549 0.671419 1.563074
vn 0.0256 -0.9994 -0.0242
vn 0.0625 -0.9864 0.1517
vn -0.0703 -0.9975 0.0081
vn -0.1960 0.9521 -0.2345
vn 0.1856 0.9490 -0.2550
vn 0.1043 0.9210 -0.3753
vn 0.6045 0.4422 -0.6626
vn 0.7858 -0.5825 -0.2081
vn 0.4709 -0.6190 -0.6286
vn 0.7356 0.0422 0.6761
vn 0.4143 -0.3976 0.8187
vn 0.7003 -0.4783 0.5299
vn -0.5350 -0.5974 0.5974
vn -0.9288 0.2909 0.2297
vn -0.9381 -0.3438 0.0434
vn -0.3428 -0.4863 -0.8037
vn -0.5805 0.4185 -0.6985
vn -0.2054 0.5945 -0.7774
vn 0.0324 -0.9986 -0.0418
vn 0.2308 -0.9571 0.1752
vn 0.0588 -0.9716 0.2291
vn -0.4269 0.9043 0.0084
vn -0.4501 0.8750 0.1781
vn 0.1315 0.9893 -0.0633
vn 0.5135 0.6767 -0.5276
vn 0.6768 0.6855 -0.2685
vn 0.9681 -0.2350 0.0867
vn 0.3234 0.5111 0.7964
vn 0.3417 0.6102 0.7148
vn 0.3958 0.0406 0.9174
vn -0.3697 -0.1299 0.9200
vn -0.5848 0.6153 0.5285
vn -0.7997 -0.5613 0.2133
vn 0.0845 -0.2609 -0.9617
vn -0.9325 -0.1808 -0.3127
vn -0.6004 0.4401 -0.6678
usemtl Material.003
s off
f 77//73 90//73 107//73 101//73
f 77//74 101//74 109//74 94//74
f 77//75 94//75 110//75 90//75
f 78//76 98//76 114//76 102//76
f 78//77 102//77 112//77 97//77
f 78//78 97//78 111//78 98//78
f 79//79 91//79 111//79 103//79
f 79//80 103//80 108//80 89//80
f 79//81 89//81 107//81 91//81
f 80//82 93//82 112//82 104//82
f 80//83 104//83 109//83 92//83
f 80//84 92//84 108//84 93//84
f 81//85 94//85 109//85 105//85
f 81//86 105//86 114//86 96//86
f 81//87 96//87 110//87 94//87
f 82//88 91//88 107//88 106//88
f 82//89 106//89 114//89 98//89
f 82//90 98//90 111//90 91//90
f 83//91 101//91 107//91 89//91
f 83//92 89//92 108//92 92//92
f 83//93 92//93 109//93 101//93
f 84//94 102//94 114//94 100//94
f 84//95 100//95 113//95 99//95
f 84//96 99//96 112//96 102//96
f 85//97 103//97 111//97 97//97
f 85//98 97//98 112//98 93//98
f 85//99 93//99 108//99 103//99
f 86//100 104//100 112//100 99//100
f 86//101 99//101 113//101 95//101
f 86//102 95//102 109//102 104//102
f 87//103 105//103 109//103 95//103
f 87//104 95//104 113//104 100//104
f 87//105 100//105 114//105 105//105
f 88//106 106//106 107//106 90//106
f 88//107 90//107 110//107 96//107
f 88//108 96//108 114//108 106//108
